<svg width="1920" height="1080" viewBox="0 0 1920 1080" fill="none" xmlns="http://www.w3.org/2000/svg">
<rect width="1920" height="1080" fill="#23242B"/>
<rect x="710" y="190" width="500" height="700" rx="12" fill="#21303A"/>
<path d="M718.18 153.5V156.26H717.72C716.667 156.26 715.62 156.647 714.58 157.42V165H711.5V153.74H714.58V154.82C715.607 153.94 716.653 153.5 717.72 153.5H718.18ZM725.509 165.34C724.242 165.34 723.162 165.08 722.269 164.56C721.376 164.04 720.702 163.333 720.249 162.44C719.809 161.533 719.589 160.513 719.589 159.38C719.589 158.26 719.809 157.253 720.249 156.36C720.702 155.453 721.376 154.74 722.269 154.22C723.162 153.687 724.242 153.42 725.509 153.42C726.776 153.42 727.849 153.687 728.729 154.22C729.609 154.74 730.269 155.453 730.709 156.36C731.162 157.253 731.389 158.26 731.389 159.38C731.389 160.513 731.162 161.533 730.709 162.44C730.269 163.333 729.609 164.04 728.729 164.56C727.849 165.08 726.776 165.34 725.509 165.34ZM725.509 162.7C726.376 162.7 727.036 162.413 727.489 161.84C727.942 161.253 728.169 160.433 728.169 159.38C728.169 158.34 727.942 157.533 727.489 156.96C727.036 156.373 726.376 156.08 725.509 156.08C724.629 156.08 723.956 156.373 723.489 156.96C723.036 157.533 722.809 158.34 722.809 159.38C722.809 160.42 723.036 161.233 723.489 161.82C723.956 162.407 724.629 162.7 725.509 162.7ZM738.908 165.34C737.641 165.34 736.561 165.08 735.668 164.56C734.774 164.04 734.101 163.333 733.648 162.44C733.208 161.533 732.988 160.513 732.988 159.38C732.988 158.26 733.208 157.253 733.648 156.36C734.101 155.453 734.774 154.74 735.668 154.22C736.561 153.687 737.641 153.42 738.908 153.42C740.174 153.42 741.248 153.687 742.128 154.22C743.008 154.74 743.668 155.453 744.108 156.36C744.561 157.253 744.788 158.26 744.788 159.38C744.788 160.513 744.561 161.533 744.108 162.44C743.668 163.333 743.008 164.04 742.128 164.56C741.248 165.08 740.174 165.34 738.908 165.34ZM738.908 162.7C739.774 162.7 740.434 162.413 740.888 161.84C741.341 161.253 741.568 160.433 741.568 159.38C741.568 158.34 741.341 157.533 740.888 156.96C740.434 156.373 739.774 156.08 738.908 156.08C738.028 156.08 737.354 156.373 736.888 156.96C736.434 157.533 736.208 158.34 736.208 159.38C736.208 160.42 736.434 161.233 736.888 161.82C737.354 162.407 738.028 162.7 738.908 162.7ZM750.826 156.82V161.26C750.826 161.727 750.899 162.053 751.046 162.24C751.206 162.427 751.486 162.52 751.886 162.52C752.313 162.52 752.719 162.467 753.106 162.36V165C752.333 165.173 751.659 165.26 751.086 165.26C749.939 165.26 749.093 165.013 748.546 164.52C748.013 164.027 747.746 163.293 747.746 162.32V156.82H746.226V154.08H747.746V150.28H750.826V154.08H753.386V156.82H750.826Z" fill="#F24C41"/>
<path d="M767.283 161.8C767.23 161.96 767.203 162.12 767.203 162.28C767.203 162.653 767.403 162.84 767.803 162.84C768.35 162.84 768.823 162.627 769.223 162.2C769.636 161.773 769.943 161.213 770.143 160.52C770.356 159.813 770.463 159.06 770.463 158.26C770.463 156.393 769.936 154.96 768.883 153.96C767.83 152.947 766.363 152.44 764.483 152.44C763.216 152.44 762.036 152.78 760.943 153.46C759.85 154.14 758.976 155.087 758.323 156.3C757.67 157.513 757.343 158.893 757.343 160.44C757.343 162.56 757.883 164.24 758.963 165.48C760.056 166.733 761.656 167.36 763.763 167.36C764.616 167.36 765.43 167.233 766.203 166.98C766.976 166.74 767.796 166.38 768.663 165.9L769.403 167.74C768.416 168.233 767.49 168.607 766.623 168.86C765.756 169.113 764.803 169.24 763.763 169.24C762.056 169.24 760.543 168.893 759.223 168.2C757.903 167.52 756.876 166.513 756.143 165.18C755.41 163.86 755.043 162.28 755.043 160.44C755.043 158.533 755.47 156.827 756.323 155.32C757.176 153.813 758.323 152.647 759.763 151.82C761.216 150.98 762.79 150.56 764.483 150.56C766.163 150.56 767.623 150.873 768.863 151.5C770.116 152.127 771.076 153.02 771.743 154.18C772.423 155.34 772.763 156.7 772.763 158.26C772.763 159.513 772.53 160.633 772.063 161.62C771.61 162.593 770.97 163.353 770.143 163.9C769.33 164.447 768.396 164.72 767.343 164.72C766.69 164.72 766.156 164.6 765.743 164.36C765.33 164.107 765.05 163.747 764.903 163.28C764.503 163.667 764.07 163.96 763.603 164.16C763.15 164.36 762.683 164.46 762.203 164.46C761.283 164.46 760.536 164.16 759.963 163.56C759.39 162.96 759.103 162.113 759.103 161.02C759.103 159.847 759.33 158.793 759.783 157.86C760.236 156.927 760.85 156.2 761.623 155.68C762.41 155.147 763.283 154.88 764.243 154.88C765.256 154.88 766.03 155.2 766.563 155.84L766.763 155.2H769.223L767.283 161.8ZM762.723 162.36C763.59 162.36 764.383 161.847 765.103 160.82L766.003 157.74C765.576 157.22 765.063 156.96 764.463 156.96C763.903 156.96 763.403 157.14 762.963 157.5C762.523 157.847 762.176 158.32 761.923 158.92C761.683 159.507 761.556 160.14 761.543 160.82C761.543 161.367 761.643 161.76 761.843 162C762.043 162.24 762.336 162.36 762.723 162.36ZM843.243 146.38H846.363L840.143 168.54H837.023L843.243 146.38ZM853.777 153.5C855.243 153.5 856.337 153.88 857.057 154.64C857.79 155.387 858.157 156.587 858.157 158.24V165H855.077V158.24C855.077 157.573 854.93 157.08 854.637 156.76C854.343 156.427 853.837 156.26 853.117 156.26C852.263 156.26 851.41 156.613 850.557 157.32V165H847.477V148.08H850.557V154.72C851.543 153.907 852.617 153.5 853.777 153.5ZM866.271 165.34C865.004 165.34 863.924 165.08 863.031 164.56C862.137 164.04 861.464 163.333 861.011 162.44C860.571 161.533 860.351 160.513 860.351 159.38C860.351 158.26 860.571 157.253 861.011 156.36C861.464 155.453 862.137 154.74 863.031 154.22C863.924 153.687 865.004 153.42 866.271 153.42C867.537 153.42 868.611 153.687 869.491 154.22C870.371 154.74 871.031 155.453 871.471 156.36C871.924 157.253 872.151 158.26 872.151 159.38C872.151 160.513 871.924 161.533 871.471 162.44C871.031 163.333 870.371 164.04 869.491 164.56C868.611 165.08 867.537 165.34 866.271 165.34ZM866.271 162.7C867.137 162.7 867.797 162.413 868.251 161.84C868.704 161.253 868.931 160.433 868.931 159.38C868.931 158.34 868.704 157.533 868.251 156.96C867.797 156.373 867.137 156.08 866.271 156.08C865.391 156.08 864.717 156.373 864.251 156.96C863.797 157.533 863.571 158.34 863.571 159.38C863.571 160.42 863.797 161.233 864.251 161.82C864.717 162.407 865.391 162.7 866.271 162.7ZM887.829 153.5C889.256 153.5 890.316 153.873 891.009 154.62C891.703 155.367 892.049 156.573 892.049 158.24V165H888.969V158.24C888.969 157.573 888.836 157.08 888.569 156.76C888.303 156.427 887.843 156.26 887.189 156.26C886.389 156.26 885.576 156.62 884.749 157.34C884.776 157.713 884.789 158.013 884.789 158.24V165H881.709V158.24C881.709 157.573 881.576 157.08 881.309 156.76C881.043 156.427 880.583 156.26 879.929 156.26C879.129 156.26 878.329 156.607 877.529 157.3V165H874.449V153.74H877.529V154.7C878.023 154.287 878.509 153.987 878.989 153.8C879.483 153.6 880.009 153.5 880.569 153.5C882.343 153.5 883.549 154.087 884.189 155.26C884.789 154.66 885.376 154.22 885.949 153.94C886.536 153.647 887.163 153.5 887.829 153.5ZM897.459 160.22C897.699 161.913 898.752 162.76 900.619 162.76C901.126 162.76 901.619 162.693 902.099 162.56C902.592 162.427 903.146 162.213 903.759 161.92L904.579 164.32C903.899 164.693 903.219 164.953 902.539 165.1C901.872 165.26 901.099 165.34 900.219 165.34C898.939 165.34 897.846 165.093 896.939 164.6C896.032 164.093 895.346 163.393 894.879 162.5C894.412 161.593 894.179 160.547 894.179 159.36C894.179 158.107 894.419 157.033 894.899 156.14C895.379 155.247 896.032 154.573 896.859 154.12C897.686 153.653 898.606 153.42 899.619 153.42C901.232 153.42 902.492 153.893 903.399 154.84C904.319 155.787 904.779 157.173 904.779 159V160.22H897.459ZM899.619 156C899.059 156 898.599 156.147 898.239 156.44C897.892 156.733 897.652 157.213 897.519 157.88H901.559C901.492 157.227 901.299 156.753 900.979 156.46C900.659 156.153 900.206 156 899.619 156ZM911.309 146.38H914.429L908.209 168.54H905.089L911.309 146.38ZM925.003 161.58H919.023L917.823 165H914.623L920.023 149.66H923.983L929.403 165H926.203L925.003 161.58ZM924.043 158.84L922.003 153L919.963 158.84H924.043ZM937.64 153.42C938.64 153.42 939.527 153.647 940.3 154.1C941.074 154.54 941.674 155.207 942.1 156.1C942.54 156.993 942.76 158.087 942.76 159.38C942.76 160.673 942.54 161.767 942.1 162.66C941.674 163.553 941.074 164.227 940.3 164.68C939.527 165.12 938.64 165.34 937.64 165.34C936.587 165.34 935.56 164.96 934.56 164.2V165H931.48V148.08H934.56V154.58C935.547 153.807 936.574 153.42 937.64 153.42ZM937 162.6C937.84 162.6 938.474 162.327 938.9 161.78C939.34 161.233 939.56 160.433 939.56 159.38C939.56 158.34 939.34 157.547 938.9 157C938.474 156.453 937.84 156.18 937 156.18C936.2 156.18 935.387 156.48 934.56 157.08V161.68C935.4 162.293 936.214 162.6 937 162.6ZM955.674 148.08V165H952.594V164.2C951.594 164.96 950.568 165.34 949.514 165.34C948.514 165.34 947.628 165.12 946.854 164.68C946.081 164.227 945.474 163.553 945.034 162.66C944.594 161.767 944.374 160.673 944.374 159.38C944.374 158.087 944.594 156.993 945.034 156.1C945.474 155.207 946.081 154.54 946.854 154.1C947.628 153.647 948.514 153.42 949.514 153.42C950.581 153.42 951.608 153.807 952.594 154.58V148.08H955.674ZM950.134 162.6C950.934 162.6 951.754 162.293 952.594 161.68V157.08C951.768 156.48 950.948 156.18 950.134 156.18C949.294 156.18 948.661 156.453 948.234 157C947.808 157.547 947.594 158.34 947.594 159.38C947.594 160.433 947.808 161.233 948.234 161.78C948.661 162.327 949.294 162.6 950.134 162.6ZM968.468 153.74L963.868 166.78C963.575 167.62 963.241 168.273 962.868 168.74C962.495 169.207 962.061 169.533 961.568 169.72C961.075 169.92 960.461 170.02 959.728 170.02C959.088 170.02 958.508 169.933 957.988 169.76V167.12C958.388 167.227 958.795 167.28 959.208 167.28C959.728 167.28 960.141 167.173 960.448 166.96C960.768 166.747 961.035 166.333 961.248 165.72L961.488 165.02L957.568 153.74H960.728L962.988 160.76L965.468 153.74H968.468ZM974.727 146.38H977.847L971.627 168.54H968.507L974.727 146.38Z" fill="#F89735"/>
<path d="M784.73 161.58H778.75L777.55 165H774.35L779.75 149.66H783.71L789.13 165H785.93L784.73 161.58ZM783.77 158.84L781.73 153L779.69 158.84H783.77ZM797.367 153.42C798.367 153.42 799.254 153.647 800.027 154.1C800.8 154.54 801.4 155.207 801.827 156.1C802.267 156.993 802.487 158.087 802.487 159.38C802.487 160.673 802.267 161.767 801.827 162.66C801.4 163.553 800.8 164.227 800.027 164.68C799.254 165.12 798.367 165.34 797.367 165.34C796.314 165.34 795.287 164.96 794.287 164.2V165H791.207V148.08H794.287V154.58C795.274 153.807 796.3 153.42 797.367 153.42ZM796.727 162.6C797.567 162.6 798.2 162.327 798.627 161.78C799.067 161.233 799.287 160.433 799.287 159.38C799.287 158.34 799.067 157.547 798.627 157C798.2 156.453 797.567 156.18 796.727 156.18C795.927 156.18 795.114 156.48 794.287 157.08V161.68C795.127 162.293 795.94 162.6 796.727 162.6ZM815.401 148.08V165H812.321V164.2C811.321 164.96 810.294 165.34 809.241 165.34C808.241 165.34 807.354 165.12 806.581 164.68C805.807 164.227 805.201 163.553 804.761 162.66C804.321 161.767 804.101 160.673 804.101 159.38C804.101 158.087 804.321 156.993 804.761 156.1C805.201 155.207 805.807 154.54 806.581 154.1C807.354 153.647 808.241 153.42 809.241 153.42C810.307 153.42 811.334 153.807 812.321 154.58V148.08H815.401ZM809.861 162.6C810.661 162.6 811.481 162.293 812.321 161.68V157.08C811.494 156.48 810.674 156.18 809.861 156.18C809.021 156.18 808.387 156.453 807.961 157C807.534 157.547 807.321 158.34 807.321 159.38C807.321 160.433 807.534 161.233 807.961 161.78C808.387 162.327 809.021 162.6 809.861 162.6ZM828.195 153.74L823.595 166.78C823.301 167.62 822.968 168.273 822.595 168.74C822.221 169.207 821.788 169.533 821.295 169.72C820.801 169.92 820.188 170.02 819.455 170.02C818.815 170.02 818.235 169.933 817.715 169.76V167.12C818.115 167.227 818.521 167.28 818.935 167.28C819.455 167.28 819.868 167.173 820.175 166.96C820.495 166.747 820.761 166.333 820.975 165.72L821.215 165.02L817.295 153.74H820.455L822.715 160.76L825.195 153.74H828.195Z" fill="#2553B6"/>
<path d="M992.341 153.5C993.768 153.5 994.828 153.873 995.521 154.62C996.214 155.367 996.561 156.573 996.561 158.24V165H993.481V158.24C993.481 157.573 993.348 157.08 993.081 156.76C992.814 156.427 992.354 156.26 991.701 156.26C990.901 156.26 990.088 156.62 989.261 157.34C989.288 157.713 989.301 158.013 989.301 158.24V165H986.221V158.24C986.221 157.573 986.088 157.08 985.821 156.76C985.554 156.427 985.094 156.26 984.441 156.26C983.641 156.26 982.841 156.607 982.041 157.3V165H978.961V153.74H982.041V154.7C982.534 154.287 983.021 153.987 983.501 153.8C983.994 153.6 984.521 153.5 985.081 153.5C986.854 153.5 988.061 154.087 988.701 155.26C989.301 154.66 989.888 154.22 990.461 153.94C991.048 153.647 991.674 153.5 992.341 153.5ZM1001.97 160.22C1002.21 161.913 1003.26 162.76 1005.13 162.76C1005.64 162.76 1006.13 162.693 1006.61 162.56C1007.1 162.427 1007.66 162.213 1008.27 161.92L1009.09 164.32C1008.41 164.693 1007.73 164.953 1007.05 165.1C1006.38 165.26 1005.61 165.34 1004.73 165.34C1003.45 165.34 1002.36 165.093 1001.45 164.6C1000.54 164.093 999.857 163.393 999.391 162.5C998.924 161.593 998.691 160.547 998.691 159.36C998.691 158.107 998.931 157.033 999.411 156.14C999.891 155.247 1000.54 154.573 1001.37 154.12C1002.2 153.653 1003.12 153.42 1004.13 153.42C1005.74 153.42 1007 153.893 1007.91 154.84C1008.83 155.787 1009.29 157.173 1009.29 159V160.22H1001.97ZM1004.13 156C1003.57 156 1003.11 156.147 1002.75 156.44C1002.4 156.733 1002.16 157.213 1002.03 157.88H1006.07C1006 157.227 1005.81 156.753 1005.49 156.46C1005.17 156.153 1004.72 156 1004.13 156ZM1011.16 161.48H1014.44V165H1011.16V161.48ZM1017.14 148.86H1020.22V151.88H1017.14V148.86ZM1016.88 170C1016.36 170 1015.72 169.92 1014.94 169.76V167.12C1015.32 167.213 1015.7 167.26 1016.08 167.26C1016.5 167.26 1016.78 167.16 1016.92 166.96C1017.07 166.76 1017.14 166.4 1017.14 165.88V153.7H1020.22V166.96C1020.22 167.973 1019.95 168.733 1019.4 169.24C1018.87 169.747 1018.03 170 1016.88 170ZM1027.28 165.34C1026.36 165.34 1025.55 165.267 1024.84 165.12C1024.15 164.973 1023.42 164.72 1022.66 164.36V161.6C1023.39 162.013 1024.13 162.313 1024.88 162.5C1025.64 162.673 1026.44 162.76 1027.28 162.76C1028.28 162.76 1028.78 162.427 1028.78 161.76C1028.78 161.493 1028.7 161.287 1028.54 161.14C1028.38 160.993 1028.13 160.88 1027.78 160.8L1026 160.42C1024.92 160.193 1024.12 159.813 1023.6 159.28C1023.08 158.747 1022.82 158.007 1022.82 157.06C1022.82 154.633 1024.34 153.42 1027.38 153.42C1028.63 153.42 1029.97 153.66 1031.38 154.14V156.8C1030.86 156.56 1030.25 156.367 1029.56 156.22C1028.88 156.073 1028.2 156 1027.52 156C1026.93 156 1026.52 156.073 1026.28 156.22C1026.05 156.367 1025.94 156.58 1025.94 156.86C1025.94 157.1 1026.01 157.28 1026.16 157.4C1026.31 157.507 1026.54 157.6 1026.86 157.68L1028.64 158.06C1029.77 158.287 1030.6 158.667 1031.12 159.2C1031.64 159.733 1031.9 160.533 1031.9 161.6C1031.9 162.84 1031.48 163.773 1030.64 164.4C1029.81 165.027 1028.69 165.34 1027.28 165.34ZM1039.47 165.34C1038.21 165.34 1037.13 165.08 1036.23 164.56C1035.34 164.04 1034.67 163.333 1034.21 162.44C1033.77 161.533 1033.55 160.513 1033.55 159.38C1033.55 158.26 1033.77 157.253 1034.21 156.36C1034.67 155.453 1035.34 154.74 1036.23 154.22C1037.13 153.687 1038.21 153.42 1039.47 153.42C1040.74 153.42 1041.81 153.687 1042.69 154.22C1043.57 154.74 1044.23 155.453 1044.67 156.36C1045.13 157.253 1045.35 158.26 1045.35 159.38C1045.35 160.513 1045.13 161.533 1044.67 162.44C1044.23 163.333 1043.57 164.04 1042.69 164.56C1041.81 165.08 1040.74 165.34 1039.47 165.34ZM1039.47 162.7C1040.34 162.7 1041 162.413 1041.45 161.84C1041.91 161.253 1042.13 160.433 1042.13 159.38C1042.13 158.34 1041.91 157.533 1041.45 156.96C1041 156.373 1040.34 156.08 1039.47 156.08C1038.59 156.08 1037.92 156.373 1037.45 156.96C1037 157.533 1036.77 158.34 1036.77 159.38C1036.77 160.42 1037 161.233 1037.45 161.82C1037.92 162.407 1038.59 162.7 1039.47 162.7ZM1053.95 153.5C1055.42 153.5 1056.51 153.88 1057.23 154.64C1057.97 155.387 1058.33 156.587 1058.33 158.24V165H1055.25V158.24C1055.25 157.573 1055.11 157.08 1054.81 156.76C1054.52 156.427 1054.01 156.26 1053.29 156.26C1052.44 156.26 1051.59 156.613 1050.73 157.32V165H1047.65V153.74H1050.73V154.72C1051.72 153.907 1052.79 153.5 1053.95 153.5Z" fill="#AE549A"/>
<path d="M786.824 243.018C786.824 243.834 786.71 244.422 786.482 244.782C786.266 245.142 785.858 245.394 785.258 245.538C785.858 245.694 786.266 245.952 786.482 246.312C786.71 246.672 786.824 247.254 786.824 248.058V250.542C786.824 251.058 786.878 251.406 786.986 251.586C787.106 251.766 787.334 251.856 787.67 251.856C787.982 251.856 788.258 251.832 788.498 251.784V254.25C788.114 254.298 787.718 254.322 787.31 254.322C786.494 254.322 785.852 254.232 785.384 254.052C784.916 253.884 784.568 253.59 784.34 253.17C784.124 252.75 784.016 252.156 784.016 251.388V248.508C784.016 248.028 783.986 247.668 783.926 247.428C783.878 247.176 783.794 247.008 783.674 246.924C783.554 246.828 783.38 246.78 783.152 246.78H782.666V244.296H783.152C783.38 244.296 783.554 244.254 783.674 244.17C783.794 244.074 783.878 243.906 783.926 243.666C783.986 243.414 784.016 243.048 784.016 242.568V239.688C784.016 238.92 784.124 238.326 784.34 237.906C784.568 237.486 784.916 237.192 785.384 237.024C785.852 236.844 786.494 236.754 787.31 236.754C787.718 236.754 788.114 236.778 788.498 236.826V239.292C788.258 239.244 787.982 239.22 787.67 239.22C787.334 239.22 787.106 239.31 786.986 239.49C786.878 239.67 786.824 240.018 786.824 240.534V243.018ZM943.25 379.856V382.322H939.002V364.754H943.16V367.22H941.81V379.856H943.25ZM802.698 574.322H798.522V571.856H799.89V559.22H798.468V556.754H802.698V574.322ZM907.902 627.018C907.902 627.834 907.788 628.422 907.56 628.782C907.344 629.142 906.936 629.394 906.336 629.538C906.936 629.694 907.344 629.952 907.56 630.312C907.788 630.672 907.902 631.254 907.902 632.058V634.542C907.902 635.058 907.956 635.406 908.064 635.586C908.184 635.766 908.412 635.856 908.748 635.856C909.06 635.856 909.336 635.832 909.576 635.784V638.25C909.192 638.298 908.796 638.322 908.388 638.322C907.572 638.322 906.93 638.232 906.462 638.052C905.994 637.884 905.646 637.59 905.418 637.17C905.202 636.75 905.094 636.156 905.094 635.388V632.508C905.094 632.028 905.064 631.668 905.004 631.428C904.956 631.176 904.872 631.008 904.752 630.924C904.632 630.828 904.458 630.78 904.23 630.78H903.744V628.296H904.23C904.458 628.296 904.632 628.254 904.752 628.17C904.872 628.074 904.956 627.906 905.004 627.666C905.064 627.414 905.094 627.048 905.094 626.568V623.688C905.094 622.92 905.202 622.326 905.418 621.906C905.646 621.486 905.994 621.192 906.462 621.024C906.93 620.844 907.572 620.754 908.388 620.754C908.796 620.754 909.192 620.778 909.576 620.826V623.292C909.336 623.244 909.06 623.22 908.748 623.22C908.412 623.22 908.184 623.31 908.064 623.49C907.956 623.67 907.902 624.018 907.902 624.534V627.018ZM798.828 755.018C798.828 755.834 798.936 756.422 799.152 756.782C799.38 757.142 799.794 757.394 800.394 757.538C799.794 757.694 799.38 757.952 799.152 758.312C798.936 758.672 798.828 759.254 798.828 760.058V762.542C798.828 763.058 798.768 763.406 798.648 763.586C798.54 763.766 798.318 763.856 797.982 763.856C797.67 763.856 797.394 763.832 797.154 763.784V766.25C797.538 766.298 797.934 766.322 798.342 766.322C799.158 766.322 799.8 766.232 800.268 766.052C800.736 765.884 801.078 765.59 801.294 765.17C801.522 764.75 801.636 764.156 801.636 763.388V760.508C801.636 760.028 801.66 759.668 801.708 759.428C801.768 759.176 801.858 759.008 801.978 758.924C802.098 758.828 802.272 758.78 802.5 758.78H802.986V756.296H802.5C802.272 756.296 802.098 756.254 801.978 756.17C801.858 756.074 801.768 755.906 801.708 755.666C801.66 755.414 801.636 755.048 801.636 754.568V751.688C801.636 750.92 801.522 750.326 801.294 749.906C801.078 749.486 800.736 749.192 800.268 749.024C799.8 748.844 799.158 748.754 798.342 748.754C797.934 748.754 797.538 748.778 797.154 748.826V751.292C797.394 751.244 797.67 751.22 797.982 751.22C798.318 751.22 798.54 751.31 798.648 751.49C798.768 751.67 798.828 752.018 798.828 752.534V755.018ZM783.008 787.018C783.008 787.834 783.116 788.422 783.332 788.782C783.56 789.142 783.974 789.394 784.574 789.538C783.974 789.694 783.56 789.952 783.332 790.312C783.116 790.672 783.008 791.254 783.008 792.058V794.542C783.008 795.058 782.948 795.406 782.828 795.586C782.72 795.766 782.498 795.856 782.162 795.856C781.85 795.856 781.574 795.832 781.334 795.784V798.25C781.718 798.298 782.114 798.322 782.522 798.322C783.338 798.322 783.98 798.232 784.448 798.052C784.916 797.884 785.258 797.59 785.474 797.17C785.702 796.75 785.816 796.156 785.816 795.388V792.508C785.816 792.028 785.84 791.668 785.888 791.428C785.948 791.176 786.038 791.008 786.158 790.924C786.278 790.828 786.452 790.78 786.68 790.78H787.166V788.296H786.68C786.452 788.296 786.278 788.254 786.158 788.17C786.038 788.074 785.948 787.906 785.888 787.666C785.84 787.414 785.816 787.048 785.816 786.568V783.688C785.816 782.92 785.702 782.326 785.474 781.906C785.258 781.486 784.916 781.192 784.448 781.024C783.98 780.844 783.338 780.754 782.522 780.754C782.114 780.754 781.718 780.778 781.334 780.826V783.292C781.574 783.244 781.85 783.22 782.162 783.22C782.498 783.22 782.72 783.31 782.828 783.49C782.948 783.67 783.008 784.018 783.008 784.534V787.018Z" fill="#AE549A"/>
<path d="M879.197 280.832H882.149V284H879.197V280.832ZM879.197 273.722H882.149V276.89H879.197V273.722ZM959.839 280.832H962.719L961.225 286.718H958.759L959.839 280.832ZM861.9 312.832H864.852V316H861.9V312.832ZM861.9 305.722H864.852V308.89H861.9V305.722ZM912.994 312.832H915.874L914.38 318.718H911.914L912.994 312.832ZM925.797 376.832H928.749V380H925.797V376.832ZM925.797 369.722H928.749V372.89H925.797V369.722ZM877.767 408.832H880.647L879.153 414.718H876.687L877.767 408.832ZM862.685 440.832H865.565L864.071 446.718H861.605L862.685 440.832ZM924.05 472.832H926.93L925.436 478.718H922.97L924.05 472.832ZM871.07 504.832H873.95L872.456 510.718H869.99L871.07 504.832ZM805.521 568.832H808.401L806.907 574.718H804.441L805.521 568.832ZM891.133 632.832H894.085V636H891.133V632.832ZM891.133 625.722H894.085V628.89H891.133V625.722ZM925.445 664.832H928.397V668H925.445V664.832ZM925.445 657.722H928.397V660.89H925.445V657.722ZM958.201 665.12C958.153 665.264 958.129 665.408 958.129 665.552C958.129 665.888 958.309 666.056 958.669 666.056C959.161 666.056 959.587 665.864 959.947 665.48C960.319 665.096 960.595 664.592 960.775 663.968C960.967 663.332 961.063 662.654 961.063 661.934C961.063 660.254 960.589 658.964 959.641 658.064C958.693 657.152 957.373 656.696 955.681 656.696C954.541 656.696 953.479 657.002 952.495 657.614C951.511 658.226 950.725 659.078 950.137 660.17C949.549 661.262 949.255 662.504 949.255 663.896C949.255 665.804 949.741 667.316 950.713 668.432C951.697 669.56 953.137 670.124 955.033 670.124C955.801 670.124 956.533 670.01 957.229 669.782C957.925 669.566 958.663 669.242 959.443 668.81L960.109 670.466C959.221 670.91 958.387 671.246 957.607 671.474C956.827 671.702 955.969 671.816 955.033 671.816C953.497 671.816 952.135 671.504 950.947 670.88C949.759 670.268 948.835 669.362 948.175 668.162C947.515 666.974 947.185 665.552 947.185 663.896C947.185 662.18 947.569 660.644 948.337 659.288C949.105 657.932 950.137 656.882 951.433 656.138C952.741 655.382 954.157 655.004 955.681 655.004C957.193 655.004 958.507 655.286 959.623 655.85C960.751 656.414 961.615 657.218 962.215 658.262C962.827 659.306 963.133 660.53 963.133 661.934C963.133 663.062 962.923 664.07 962.503 664.958C962.095 665.834 961.519 666.518 960.775 667.01C960.043 667.502 959.203 667.748 958.255 667.748C957.667 667.748 957.187 667.64 956.815 667.424C956.443 667.196 956.191 666.872 956.059 666.452C955.699 666.8 955.309 667.064 954.889 667.244C954.481 667.424 954.061 667.514 953.629 667.514C952.801 667.514 952.129 667.244 951.613 666.704C951.097 666.164 950.839 665.402 950.839 664.418C950.839 663.362 951.043 662.414 951.451 661.574C951.859 660.734 952.411 660.08 953.107 659.612C953.815 659.132 954.601 658.892 955.465 658.892C956.377 658.892 957.073 659.18 957.553 659.756L957.733 659.18H959.947L958.201 665.12ZM954.097 665.624C954.877 665.624 955.591 665.162 956.239 664.238L957.049 661.466C956.665 660.998 956.203 660.764 955.663 660.764C955.159 660.764 954.709 660.926 954.313 661.25C953.917 661.562 953.605 661.988 953.377 662.528C953.161 663.056 953.047 663.626 953.035 664.238C953.035 664.73 953.125 665.084 953.305 665.3C953.485 665.516 953.749 665.624 954.097 665.624ZM1118.68 664.832H1121.56L1120.06 670.718H1117.6L1118.68 664.832ZM912.244 696.832H915.196V700H912.244V696.832ZM912.244 689.722H915.196V692.89H912.244V689.722ZM1050.24 696.832H1053.12L1051.63 702.718H1049.16L1050.24 696.832ZM906.215 728.832H909.167V732H906.215V728.832ZM906.215 721.722H909.167V724.89H906.215V721.722Z" fill="white"/>
<path d="M799.116 270.356H801.636V275.792H799.116V270.356ZM802.896 270.356H805.416V275.792H802.896V270.356ZM862.609 270.356H865.129V275.792H862.609V270.356ZM866.389 270.356H868.909V275.792H866.389V270.356ZM892.439 270.356H894.959V275.792H892.439V270.356ZM896.219 270.356H898.739V275.792H896.219V270.356ZM950.675 270.356H953.195V275.792H950.675V270.356ZM954.455 270.356H956.975V275.792H954.455V270.356ZM799.116 302.356H801.636V307.792H799.116V302.356ZM802.896 302.356H805.416V307.792H802.896V302.356ZM845.312 302.356H847.832V307.792H845.312V302.356ZM849.092 302.356H851.612V307.792H849.092V302.356ZM875.142 302.356H877.662V307.792H875.142V302.356ZM878.922 302.356H881.442V307.792H878.922V302.356ZM903.829 302.356H906.349V307.792H903.829V302.356ZM907.609 302.356H910.129V307.792H907.609V302.356ZM799.116 366.356H801.636V371.792H799.116V366.356ZM802.896 366.356H805.416V371.792H802.896V366.356ZM909.208 366.356H911.728V371.792H909.208V366.356ZM912.988 366.356H915.508V371.792H912.988V366.356ZM814.937 398.356H817.457V403.792H814.937V398.356ZM818.717 398.356H821.237V403.792H818.717V398.356ZM868.603 398.356H871.123V403.792H868.603V398.356ZM872.383 398.356H874.903V403.792H872.383V398.356ZM814.937 430.356H817.457V435.792H814.937V430.356ZM818.717 430.356H821.237V435.792H818.717V430.356ZM853.521 430.356H856.041V435.792H853.521V430.356ZM857.301 430.356H859.821V435.792H857.301V430.356ZM814.937 462.356H817.457V467.792H814.937V462.356ZM818.717 462.356H821.237V467.792H818.717V462.356ZM914.886 462.356H917.406V467.792H914.886V462.356ZM918.666 462.356H921.186V467.792H918.666V462.356ZM814.937 494.356H817.457V499.792H814.937V494.356ZM818.717 494.356H821.237V499.792H818.717V494.356ZM861.905 494.356H864.425V499.792H861.905V494.356ZM865.685 494.356H868.205V499.792H865.685V494.356ZM814.937 526.356H817.457V531.792H814.937V526.356ZM818.717 526.356H821.237V531.792H818.717V526.356ZM836.628 526.356H839.148V531.792H836.628V526.356ZM840.408 526.356H842.928V531.792H840.408V526.356ZM799.116 622.356H801.636V627.792H799.116V622.356ZM802.896 622.356H805.416V627.792H802.896V622.356ZM874.544 622.356H877.064V627.792H874.544V622.356ZM878.324 622.356H880.844V627.792H878.324V622.356ZM814.937 654.356H817.457V659.792H814.937V654.356ZM818.717 654.356H821.237V659.792H818.717V654.356ZM908.857 654.356H911.377V659.792H908.857V654.356ZM912.637 654.356H915.157V659.792H912.637V654.356ZM938.687 654.356H941.207V659.792H938.687V654.356ZM942.467 654.356H944.987V659.792H942.467V654.356ZM1109.51 654.356H1112.03V659.792H1109.51V654.356ZM1113.29 654.356H1115.81V659.792H1113.29V654.356ZM814.937 686.356H817.457V691.792H814.937V686.356ZM818.717 686.356H821.237V691.792H818.717V686.356ZM895.655 686.356H898.175V691.792H895.655V686.356ZM899.435 686.356H901.955V691.792H899.435V686.356ZM925.485 686.356H928.005V691.792H925.485V686.356ZM929.265 686.356H931.785V691.792H929.265V686.356ZM1041.08 686.356H1043.6V691.792H1041.08V686.356ZM1044.86 686.356H1047.38V691.792H1044.86V686.356ZM814.937 718.356H817.457V723.792H814.937V718.356ZM818.717 718.356H821.237V723.792H818.717V718.356ZM889.626 718.356H892.146V723.792H889.626V718.356ZM893.406 718.356H895.926V723.792H893.406V718.356ZM919.456 718.356H921.976V723.792H919.456V718.356ZM923.236 718.356H925.756V723.792H923.236V718.356ZM1109.48 718.356H1112V723.792H1109.48V718.356ZM1113.26 718.356H1115.78V723.792H1113.26V718.356Z" fill="#F89735"/>
<path d="M819.765 270.356V284H816.489L811.143 275V284H808.281V270.356H811.539L816.903 279.356V270.356H819.765ZM826.416 273.866C827.676 273.866 828.63 274.046 829.278 274.406C829.926 274.754 830.358 275.222 830.574 275.81C830.79 276.398 830.898 277.148 830.898 278.06V284H828.126V283.136C827.694 283.532 827.268 283.814 826.848 283.982C826.44 284.15 825.984 284.234 825.48 284.234C824.376 284.234 823.5 283.934 822.852 283.334C822.204 282.722 821.88 281.882 821.88 280.814C821.88 279.722 822.21 278.882 822.87 278.294C823.542 277.706 824.466 277.412 825.642 277.412C826.59 277.412 827.418 277.592 828.126 277.952C828.114 277.556 828.06 277.244 827.964 277.016C827.868 276.776 827.676 276.596 827.388 276.476C827.112 276.344 826.698 276.278 826.146 276.278H824.274V273.866H826.416ZM826.038 282.056C826.71 282.056 827.406 281.756 828.126 281.156V279.878C827.502 279.578 826.884 279.428 826.272 279.428C825.792 279.428 825.408 279.536 825.12 279.752C824.832 279.968 824.688 280.31 824.688 280.778C824.688 281.63 825.138 282.056 826.038 282.056ZM845.455 273.65C846.739 273.65 847.693 273.986 848.317 274.658C848.941 275.33 849.253 276.416 849.253 277.916V284H846.481V277.916C846.481 277.316 846.361 276.872 846.121 276.584C845.881 276.284 845.467 276.134 844.879 276.134C844.159 276.134 843.427 276.458 842.683 277.106C842.707 277.442 842.719 277.712 842.719 277.916V284H839.947V277.916C839.947 277.316 839.827 276.872 839.587 276.584C839.347 276.284 838.933 276.134 838.345 276.134C837.625 276.134 836.905 276.446 836.185 277.07V284H833.413V273.866H836.185V274.73C836.629 274.358 837.067 274.088 837.499 273.92C837.943 273.74 838.417 273.65 838.921 273.65C840.517 273.65 841.603 274.178 842.179 275.234C842.719 274.694 843.247 274.298 843.763 274.046C844.291 273.782 844.855 273.65 845.455 273.65ZM854.121 279.698C854.337 281.222 855.285 281.984 856.965 281.984C857.421 281.984 857.865 281.924 858.297 281.804C858.741 281.684 859.239 281.492 859.791 281.228L860.529 283.388C859.917 283.724 859.305 283.958 858.693 284.09C858.093 284.234 857.397 284.306 856.605 284.306C855.453 284.306 854.469 284.084 853.653 283.64C852.837 283.184 852.219 282.554 851.799 281.75C851.379 280.934 851.169 279.992 851.169 278.924C851.169 277.796 851.385 276.83 851.817 276.026C852.249 275.222 852.837 274.616 853.581 274.208C854.325 273.788 855.153 273.578 856.065 273.578C857.517 273.578 858.651 274.004 859.467 274.856C860.295 275.708 860.709 276.956 860.709 278.6V279.698H854.121ZM856.065 275.9C855.561 275.9 855.147 276.032 854.823 276.296C854.511 276.56 854.295 276.992 854.175 277.592H857.811C857.751 277.004 857.577 276.578 857.289 276.314C857.001 276.038 856.593 275.9 856.065 275.9ZM816.579 312.922H811.197L810.117 316H807.237L812.097 302.194H815.661L820.539 316H817.659L816.579 312.922ZM815.715 310.456L813.879 305.2L812.043 310.456H815.715ZM831.877 305.866V316.018C831.877 317.362 831.481 318.448 830.689 319.276C829.909 320.104 828.763 320.518 827.251 320.518C826.327 320.518 825.517 320.47 824.821 320.374C824.125 320.278 823.465 320.11 822.841 319.87V317.296C823.453 317.56 824.071 317.752 824.695 317.872C825.319 317.992 825.883 318.052 826.387 318.052C827.383 318.052 828.085 317.866 828.493 317.494C828.901 317.122 829.105 316.57 829.105 315.838V314.92C828.205 315.604 827.281 315.946 826.333 315.946C824.929 315.946 823.807 315.52 822.967 314.668C822.127 313.816 821.707 312.514 821.707 310.762C821.707 309.646 821.905 308.698 822.301 307.918C822.697 307.138 823.243 306.556 823.939 306.172C824.635 305.776 825.433 305.578 826.333 305.578C827.293 305.578 828.217 305.926 829.105 306.622V305.866H831.877ZM826.891 313.48C827.587 313.48 828.325 313.204 829.105 312.652V308.872C828.349 308.332 827.611 308.062 826.891 308.062C826.135 308.062 825.559 308.296 825.163 308.764C824.779 309.232 824.587 309.898 824.587 310.762C824.587 311.722 824.773 312.418 825.145 312.85C825.529 313.27 826.111 313.48 826.891 313.48ZM836.824 311.698C837.04 313.222 837.988 313.984 839.668 313.984C840.124 313.984 840.568 313.924 841 313.804C841.444 313.684 841.942 313.492 842.494 313.228L843.232 315.388C842.62 315.724 842.008 315.958 841.396 316.09C840.796 316.234 840.1 316.306 839.308 316.306C838.156 316.306 837.172 316.084 836.356 315.64C835.54 315.184 834.922 314.554 834.502 313.75C834.082 312.934 833.872 311.992 833.872 310.924C833.872 309.796 834.088 308.83 834.52 308.026C834.952 307.222 835.54 306.616 836.284 306.208C837.028 305.788 837.856 305.578 838.768 305.578C840.22 305.578 841.354 306.004 842.17 306.856C842.998 307.708 843.412 308.956 843.412 310.6V311.698H836.824ZM838.768 307.9C838.264 307.9 837.85 308.032 837.526 308.296C837.214 308.56 836.998 308.992 836.878 309.592H840.514C840.454 309.004 840.28 308.578 839.992 308.314C839.704 308.038 839.296 307.9 838.768 307.9ZM816.291 377.534V380H808.281V366.356H811.143V377.534H816.291ZM822.11 369.866C823.37 369.866 824.324 370.046 824.972 370.406C825.62 370.754 826.052 371.222 826.268 371.81C826.484 372.398 826.592 373.148 826.592 374.06V380H823.82V379.136C823.388 379.532 822.962 379.814 822.542 379.982C822.134 380.15 821.678 380.234 821.174 380.234C820.07 380.234 819.194 379.934 818.546 379.334C817.898 378.722 817.574 377.882 817.574 376.814C817.574 375.722 817.904 374.882 818.564 374.294C819.236 373.706 820.16 373.412 821.336 373.412C822.284 373.412 823.112 373.592 823.82 373.952C823.808 373.556 823.754 373.244 823.658 373.016C823.562 372.776 823.37 372.596 823.082 372.476C822.806 372.344 822.392 372.278 821.84 372.278H819.968V369.866H822.11ZM821.732 378.056C822.404 378.056 823.1 377.756 823.82 377.156V375.878C823.196 375.578 822.578 375.428 821.966 375.428C821.486 375.428 821.102 375.536 820.814 375.752C820.526 375.968 820.382 376.31 820.382 376.778C820.382 377.63 820.832 378.056 821.732 378.056ZM834.776 369.65C836.096 369.65 837.08 369.992 837.728 370.676C838.388 371.348 838.718 372.428 838.718 373.916V380H835.946V373.916C835.946 373.316 835.814 372.872 835.55 372.584C835.286 372.284 834.83 372.134 834.182 372.134C833.414 372.134 832.646 372.452 831.878 373.088V380H829.106V369.866H831.878V370.748C832.766 370.016 833.732 369.65 834.776 369.65ZM850.791 369.866V380.018C850.791 381.362 850.395 382.448 849.603 383.276C848.823 384.104 847.677 384.518 846.165 384.518C845.241 384.518 844.431 384.47 843.735 384.374C843.039 384.278 842.379 384.11 841.755 383.87V381.296C842.367 381.56 842.985 381.752 843.609 381.872C844.233 381.992 844.797 382.052 845.301 382.052C846.297 382.052 846.999 381.866 847.407 381.494C847.815 381.122 848.019 380.57 848.019 379.838V378.92C847.119 379.604 846.195 379.946 845.247 379.946C843.843 379.946 842.721 379.52 841.881 378.668C841.041 377.816 840.621 376.514 840.621 374.762C840.621 373.646 840.819 372.698 841.215 371.918C841.611 371.138 842.157 370.556 842.853 370.172C843.549 369.776 844.347 369.578 845.247 369.578C846.207 369.578 847.131 369.926 848.019 370.622V369.866H850.791ZM845.805 377.48C846.501 377.48 847.239 377.204 848.019 376.652V372.872C847.263 372.332 846.525 372.062 845.805 372.062C845.049 372.062 844.473 372.296 844.077 372.764C843.693 373.232 843.501 373.898 843.501 374.762C843.501 375.722 843.687 376.418 844.059 376.85C844.443 377.27 845.025 377.48 845.805 377.48ZM862.938 369.866V380H860.166V379.136C859.266 379.856 858.3 380.216 857.268 380.216C855.948 380.216 854.958 379.88 854.298 379.208C853.65 378.536 853.326 377.456 853.326 375.968V369.866H856.098V375.968C856.098 376.568 856.23 377.018 856.494 377.318C856.77 377.606 857.226 377.75 857.862 377.75C858.618 377.75 859.386 377.426 860.166 376.778V369.866H862.938ZM869.377 369.866C870.637 369.866 871.591 370.046 872.239 370.406C872.887 370.754 873.319 371.222 873.535 371.81C873.751 372.398 873.859 373.148 873.859 374.06V380H871.087V379.136C870.655 379.532 870.229 379.814 869.809 379.982C869.401 380.15 868.945 380.234 868.441 380.234C867.337 380.234 866.461 379.934 865.813 379.334C865.165 378.722 864.841 377.882 864.841 376.814C864.841 375.722 865.171 374.882 865.831 374.294C866.503 373.706 867.427 373.412 868.603 373.412C869.551 373.412 870.379 373.592 871.087 373.952C871.075 373.556 871.021 373.244 870.925 373.016C870.829 372.776 870.637 372.596 870.349 372.476C870.073 372.344 869.659 372.278 869.107 372.278H867.235V369.866H869.377ZM868.999 378.056C869.671 378.056 870.367 377.756 871.087 377.156V375.878C870.463 375.578 869.845 375.428 869.233 375.428C868.753 375.428 868.369 375.536 868.081 375.752C867.793 375.968 867.649 376.31 867.649 376.778C867.649 377.63 868.099 378.056 868.999 378.056ZM885.841 369.866V380.018C885.841 381.362 885.445 382.448 884.653 383.276C883.873 384.104 882.727 384.518 881.215 384.518C880.291 384.518 879.481 384.47 878.785 384.374C878.089 384.278 877.429 384.11 876.805 383.87V381.296C877.417 381.56 878.035 381.752 878.659 381.872C879.283 381.992 879.847 382.052 880.351 382.052C881.347 382.052 882.049 381.866 882.457 381.494C882.865 381.122 883.069 380.57 883.069 379.838V378.92C882.169 379.604 881.245 379.946 880.297 379.946C878.893 379.946 877.771 379.52 876.931 378.668C876.091 377.816 875.671 376.514 875.671 374.762C875.671 373.646 875.869 372.698 876.265 371.918C876.661 371.138 877.207 370.556 877.903 370.172C878.599 369.776 879.397 369.578 880.297 369.578C881.257 369.578 882.181 369.926 883.069 370.622V369.866H885.841ZM880.855 377.48C881.551 377.48 882.289 377.204 883.069 376.652V372.872C882.313 372.332 881.575 372.062 880.855 372.062C880.099 372.062 879.523 372.296 879.127 372.764C878.743 373.232 878.551 373.898 878.551 374.762C878.551 375.722 878.737 376.418 879.109 376.85C879.493 377.27 880.075 377.48 880.855 377.48ZM890.789 375.698C891.005 377.222 891.953 377.984 893.633 377.984C894.089 377.984 894.533 377.924 894.965 377.804C895.409 377.684 895.907 377.492 896.459 377.228L897.197 379.388C896.585 379.724 895.973 379.958 895.361 380.09C894.761 380.234 894.065 380.306 893.273 380.306C892.121 380.306 891.137 380.084 890.321 379.64C889.505 379.184 888.887 378.554 888.467 377.75C888.047 376.934 887.837 375.992 887.837 374.924C887.837 373.796 888.053 372.83 888.485 372.026C888.917 371.222 889.505 370.616 890.249 370.208C890.993 369.788 891.821 369.578 892.733 369.578C894.185 369.578 895.319 370.004 896.135 370.856C896.963 371.708 897.377 372.956 897.377 374.6V375.698H890.789ZM892.733 371.9C892.229 371.9 891.815 372.032 891.491 372.296C891.179 372.56 890.963 372.992 890.843 373.592H894.479C894.419 373.004 894.245 372.578 893.957 372.314C893.669 372.038 893.261 371.9 892.733 371.9ZM902.984 380.306C902.156 380.306 901.424 380.24 900.788 380.108C900.164 379.976 899.51 379.748 898.826 379.424V376.94C899.486 377.312 900.152 377.582 900.824 377.75C901.508 377.906 902.228 377.984 902.984 377.984C903.884 377.984 904.334 377.684 904.334 377.084C904.334 376.844 904.262 376.658 904.118 376.526C903.974 376.394 903.746 376.292 903.434 376.22L901.832 375.878C900.86 375.674 900.14 375.332 899.672 374.852C899.204 374.372 898.97 373.706 898.97 372.854C898.97 370.67 900.338 369.578 903.074 369.578C904.202 369.578 905.402 369.794 906.674 370.226V372.62C906.206 372.404 905.66 372.23 905.036 372.098C904.424 371.966 903.812 371.9 903.2 371.9C902.672 371.9 902.3 371.966 902.084 372.098C901.88 372.23 901.778 372.422 901.778 372.674C901.778 372.89 901.844 373.052 901.976 373.16C902.108 373.256 902.318 373.34 902.606 373.412L904.208 373.754C905.228 373.958 905.972 374.3 906.44 374.78C906.908 375.26 907.142 375.98 907.142 376.94C907.142 378.056 906.764 378.896 906.008 379.46C905.264 380.024 904.256 380.306 902.984 380.306ZM812.691 636.306C810.831 636.306 809.187 635.97 807.759 635.298V632.688C809.259 633.48 810.903 633.876 812.691 633.876C813.459 633.876 814.023 633.732 814.383 633.444C814.755 633.156 814.941 632.778 814.941 632.31C814.941 631.854 814.773 631.512 814.437 631.284C814.113 631.056 813.567 630.834 812.799 630.618L811.575 630.276C810.867 630.072 810.249 629.838 809.721 629.574C809.205 629.298 808.767 628.896 808.407 628.368C808.047 627.84 807.867 627.156 807.867 626.316C807.867 624.936 808.281 623.892 809.109 623.184C809.949 622.464 811.125 622.104 812.637 622.104C813.537 622.104 814.329 622.188 815.013 622.356C815.709 622.512 816.411 622.758 817.119 623.094V625.614C815.787 624.894 814.293 624.534 812.637 624.534C811.941 624.534 811.443 624.666 811.143 624.93C810.855 625.194 810.711 625.572 810.711 626.064C810.723 626.532 810.867 626.874 811.143 627.09C811.431 627.294 811.959 627.504 812.727 627.72L813.969 628.062C814.725 628.266 815.373 628.512 815.913 628.8C816.453 629.088 816.897 629.508 817.245 630.06C817.605 630.6 817.785 631.308 817.785 632.184C817.773 633.468 817.317 634.476 816.417 635.208C815.517 635.94 814.275 636.306 812.691 636.306ZM824.716 636.306C823.576 636.306 822.604 636.072 821.8 635.604C820.996 635.136 820.39 634.5 819.982 633.696C819.586 632.88 819.388 631.962 819.388 630.942C819.388 629.934 819.586 629.028 819.982 628.224C820.39 627.408 820.996 626.766 821.8 626.298C822.604 625.818 823.576 625.578 824.716 625.578C825.856 625.578 826.822 625.818 827.614 626.298C828.406 626.766 829 627.408 829.396 628.224C829.804 629.028 830.008 629.934 830.008 630.942C830.008 631.962 829.804 632.88 829.396 633.696C829 634.5 828.406 635.136 827.614 635.604C826.822 636.072 825.856 636.306 824.716 636.306ZM824.716 633.93C825.496 633.93 826.09 633.672 826.498 633.156C826.906 632.628 827.11 631.89 827.11 630.942C827.11 630.006 826.906 629.28 826.498 628.764C826.09 628.236 825.496 627.972 824.716 627.972C823.924 627.972 823.318 628.236 822.898 628.764C822.49 629.28 822.286 630.006 822.286 630.942C822.286 631.878 822.49 632.61 822.898 633.138C823.318 633.666 823.924 633.93 824.716 633.93ZM836.541 636.306C834.897 636.294 833.637 635.82 832.761 634.884C831.885 633.936 831.447 632.616 831.447 630.924C831.447 629.244 831.885 627.936 832.761 627C833.637 626.064 834.897 625.59 836.541 625.578C837.129 625.578 837.633 625.62 838.053 625.704C838.485 625.776 838.935 625.902 839.403 626.082V628.62C838.959 628.416 838.539 628.272 838.143 628.188C837.747 628.104 837.315 628.062 836.847 628.062C835.971 628.074 835.335 628.326 834.939 628.818C834.543 629.298 834.345 629.994 834.345 630.906C834.345 632.85 835.155 633.828 836.775 633.84C837.603 633.84 838.461 633.57 839.349 633.03L840.141 635.352C839.049 635.988 837.849 636.306 836.541 636.306ZM841.903 621.474H844.675V624.192H841.903V621.474ZM841.903 625.866H844.675V636H841.903V625.866ZM851.114 625.866C852.374 625.866 853.328 626.046 853.976 626.406C854.624 626.754 855.056 627.222 855.272 627.81C855.488 628.398 855.596 629.148 855.596 630.06V636H852.824V635.136C852.392 635.532 851.966 635.814 851.546 635.982C851.138 636.15 850.682 636.234 850.178 636.234C849.074 636.234 848.198 635.934 847.55 635.334C846.902 634.722 846.578 633.882 846.578 632.814C846.578 631.722 846.908 630.882 847.568 630.294C848.24 629.706 849.164 629.412 850.34 629.412C851.288 629.412 852.116 629.592 852.824 629.952C852.812 629.556 852.758 629.244 852.662 629.016C852.566 628.776 852.374 628.596 852.086 628.476C851.81 628.344 851.396 628.278 850.844 628.278H848.972V625.866H851.114ZM850.736 634.056C851.408 634.056 852.104 633.756 852.824 633.156V631.878C852.2 631.578 851.582 631.428 850.97 631.428C850.49 631.428 850.106 631.536 849.818 631.752C849.53 631.968 849.386 632.31 849.386 632.778C849.386 633.63 849.836 634.056 850.736 634.056ZM861.116 636.234C859.112 636.234 858.11 635.358 858.11 633.606V620.772H860.882V632.634C860.882 633.066 860.948 633.366 861.08 633.534C861.224 633.69 861.476 633.768 861.836 633.768C862.208 633.768 862.55 633.72 862.862 633.624V636.018C862.166 636.162 861.584 636.234 861.116 636.234ZM868.32 636.306C867.492 636.306 866.76 636.24 866.124 636.108C865.5 635.976 864.846 635.748 864.162 635.424V632.94C864.822 633.312 865.488 633.582 866.16 633.75C866.844 633.906 867.564 633.984 868.32 633.984C869.22 633.984 869.67 633.684 869.67 633.084C869.67 632.844 869.598 632.658 869.454 632.526C869.31 632.394 869.082 632.292 868.77 632.22L867.168 631.878C866.196 631.674 865.476 631.332 865.008 630.852C864.54 630.372 864.306 629.706 864.306 628.854C864.306 626.67 865.674 625.578 868.41 625.578C869.538 625.578 870.738 625.794 872.01 626.226V628.62C871.542 628.404 870.996 628.23 870.372 628.098C869.76 627.966 869.148 627.9 868.536 627.9C868.008 627.9 867.636 627.966 867.42 628.098C867.216 628.23 867.114 628.422 867.114 628.674C867.114 628.89 867.18 629.052 867.312 629.16C867.444 629.256 867.654 629.34 867.942 629.412L869.544 629.754C870.564 629.958 871.308 630.3 871.776 630.78C872.244 631.26 872.478 631.98 872.478 632.94C872.478 634.056 872.1 634.896 871.344 635.46C870.6 636.024 869.592 636.306 868.32 636.306ZM827.251 660.638V664.634C827.251 665.054 827.317 665.348 827.449 665.516C827.593 665.684 827.845 665.768 828.205 665.768C828.589 665.768 828.955 665.72 829.303 665.624V668C828.607 668.156 828.001 668.234 827.485 668.234C826.453 668.234 825.691 668.012 825.199 667.568C824.719 667.124 824.479 666.464 824.479 665.588V660.638H823.111V658.172H824.479V654.752H827.251V658.172H829.555V660.638H827.251ZM833.818 663.698C834.034 665.222 834.982 665.984 836.662 665.984C837.118 665.984 837.562 665.924 837.994 665.804C838.438 665.684 838.936 665.492 839.488 665.228L840.226 667.388C839.614 667.724 839.002 667.958 838.39 668.09C837.79 668.234 837.094 668.306 836.302 668.306C835.15 668.306 834.166 668.084 833.35 667.64C832.534 667.184 831.916 666.554 831.496 665.75C831.076 664.934 830.866 663.992 830.866 662.924C830.866 661.796 831.082 660.83 831.514 660.026C831.946 659.222 832.534 658.616 833.278 658.208C834.022 657.788 834.85 657.578 835.762 657.578C837.214 657.578 838.348 658.004 839.164 658.856C839.992 659.708 840.406 660.956 840.406 662.6V663.698H833.818ZM835.762 659.9C835.258 659.9 834.844 660.032 834.52 660.296C834.208 660.56 833.992 660.992 833.872 661.592H837.508C837.448 661.004 837.274 660.578 836.986 660.314C836.698 660.038 836.29 659.9 835.762 659.9ZM845.366 668.234C843.362 668.234 842.36 667.358 842.36 665.606V652.772H845.132V664.634C845.132 665.066 845.198 665.366 845.33 665.534C845.474 665.69 845.726 665.768 846.086 665.768C846.458 665.768 846.8 665.72 847.112 665.624V668.018C846.416 668.162 845.834 668.234 845.366 668.234ZM851.238 663.698C851.454 665.222 852.402 665.984 854.082 665.984C854.538 665.984 854.982 665.924 855.414 665.804C855.858 665.684 856.356 665.492 856.908 665.228L857.646 667.388C857.034 667.724 856.422 667.958 855.81 668.09C855.21 668.234 854.514 668.306 853.722 668.306C852.57 668.306 851.586 668.084 850.77 667.64C849.954 667.184 849.336 666.554 848.916 665.75C848.496 664.934 848.286 663.992 848.286 662.924C848.286 661.796 848.502 660.83 848.934 660.026C849.366 659.222 849.954 658.616 850.698 658.208C851.442 657.788 852.27 657.578 853.182 657.578C854.634 657.578 855.768 658.004 856.584 658.856C857.412 659.708 857.826 660.956 857.826 662.6V663.698H851.238ZM853.182 659.9C852.678 659.9 852.264 660.032 851.94 660.296C851.628 660.56 851.412 660.992 851.292 661.592H854.928C854.868 661.004 854.694 660.578 854.406 660.314C854.118 660.038 853.71 659.9 853.182 659.9ZM869.248 657.866V668.018C869.248 669.362 868.852 670.448 868.06 671.276C867.28 672.104 866.134 672.518 864.622 672.518C863.698 672.518 862.888 672.47 862.192 672.374C861.496 672.278 860.836 672.11 860.212 671.87V669.296C860.824 669.56 861.442 669.752 862.066 669.872C862.69 669.992 863.254 670.052 863.758 670.052C864.754 670.052 865.456 669.866 865.864 669.494C866.272 669.122 866.476 668.57 866.476 667.838V666.92C865.576 667.604 864.652 667.946 863.704 667.946C862.3 667.946 861.178 667.52 860.338 666.668C859.498 665.816 859.078 664.514 859.078 662.762C859.078 661.646 859.276 660.698 859.672 659.918C860.068 659.138 860.614 658.556 861.31 658.172C862.006 657.776 862.804 657.578 863.704 657.578C864.664 657.578 865.588 657.926 866.476 658.622V657.866H869.248ZM864.262 665.48C864.958 665.48 865.696 665.204 866.476 664.652V660.872C865.72 660.332 864.982 660.062 864.262 660.062C863.506 660.062 862.93 660.296 862.534 660.764C862.15 661.232 861.958 661.898 861.958 662.762C861.958 663.722 862.144 664.418 862.516 664.85C862.9 665.27 863.482 665.48 864.262 665.48ZM877.885 657.65V660.134H877.471C876.523 660.134 875.581 660.482 874.645 661.178V668H871.873V657.866H874.645V658.838C875.569 658.046 876.511 657.65 877.471 657.65H877.885ZM883.528 657.866C884.788 657.866 885.742 658.046 886.39 658.406C887.038 658.754 887.47 659.222 887.686 659.81C887.902 660.398 888.01 661.148 888.01 662.06V668H885.238V667.136C884.806 667.532 884.38 667.814 883.96 667.982C883.552 668.15 883.096 668.234 882.592 668.234C881.488 668.234 880.612 667.934 879.964 667.334C879.316 666.722 878.992 665.882 878.992 664.814C878.992 663.722 879.322 662.882 879.982 662.294C880.654 661.706 881.578 661.412 882.754 661.412C883.702 661.412 884.53 661.592 885.238 661.952C885.226 661.556 885.172 661.244 885.076 661.016C884.98 660.776 884.788 660.596 884.5 660.476C884.224 660.344 883.81 660.278 883.258 660.278H881.386V657.866H883.528ZM883.15 666.056C883.822 666.056 884.518 665.756 885.238 665.156V663.878C884.614 663.578 883.996 663.428 883.384 663.428C882.904 663.428 882.52 663.536 882.232 663.752C881.944 663.968 881.8 664.31 881.8 664.778C881.8 665.63 882.25 666.056 883.15 666.056ZM902.566 657.65C903.85 657.65 904.804 657.986 905.428 658.658C906.052 659.33 906.364 660.416 906.364 661.916V668H903.592V661.916C903.592 661.316 903.472 660.872 903.232 660.584C902.992 660.284 902.578 660.134 901.99 660.134C901.27 660.134 900.538 660.458 899.794 661.106C899.818 661.442 899.83 661.712 899.83 661.916V668H897.058V661.916C897.058 661.316 896.938 660.872 896.698 660.584C896.458 660.284 896.044 660.134 895.456 660.134C894.736 660.134 894.016 660.446 893.296 661.07V668H890.524V657.866H893.296V658.73C893.74 658.358 894.178 658.088 894.61 657.92C895.054 657.74 895.528 657.65 896.032 657.65C897.628 657.65 898.714 658.178 899.29 659.234C899.83 658.694 900.358 658.298 900.874 658.046C901.402 657.782 901.966 657.65 902.566 657.65ZM828.835 686.356C831.259 686.356 833.089 686.938 834.325 688.102C835.573 689.254 836.197 690.952 836.197 693.196C836.197 695.452 835.579 697.15 834.343 698.29C833.107 699.43 831.271 700 828.835 700H824.101V686.356H828.835ZM833.281 693.142C833.281 691.642 832.915 690.544 832.183 689.848C831.451 689.14 830.335 688.786 828.835 688.786H826.963V697.57H828.835C830.359 697.57 831.481 697.222 832.201 696.526C832.921 695.818 833.281 694.69 833.281 693.142ZM838.282 685.474H841.054V688.192H838.282V685.474ZM838.282 689.866H841.054V700H838.282V689.866ZM847.402 700.306C846.574 700.306 845.842 700.24 845.206 700.108C844.582 699.976 843.928 699.748 843.244 699.424V696.94C843.904 697.312 844.57 697.582 845.242 697.75C845.926 697.906 846.646 697.984 847.402 697.984C848.302 697.984 848.752 697.684 848.752 697.084C848.752 696.844 848.68 696.658 848.536 696.526C848.392 696.394 848.164 696.292 847.852 696.22L846.25 695.878C845.278 695.674 844.558 695.332 844.09 694.852C843.622 694.372 843.388 693.706 843.388 692.854C843.388 690.67 844.756 689.578 847.492 689.578C848.62 689.578 849.82 689.794 851.092 690.226V692.62C850.624 692.404 850.078 692.23 849.454 692.098C848.842 691.966 848.23 691.9 847.618 691.9C847.09 691.9 846.718 691.966 846.502 692.098C846.298 692.23 846.196 692.422 846.196 692.674C846.196 692.89 846.262 693.052 846.394 693.16C846.526 693.256 846.736 693.34 847.024 693.412L848.626 693.754C849.646 693.958 850.39 694.3 850.858 694.78C851.326 695.26 851.56 695.98 851.56 696.94C851.56 698.056 851.182 698.896 850.426 699.46C849.682 700.024 848.674 700.306 847.402 700.306ZM858.144 700.306C856.5 700.294 855.24 699.82 854.364 698.884C853.488 697.936 853.05 696.616 853.05 694.924C853.05 693.244 853.488 691.936 854.364 691C855.24 690.064 856.5 689.59 858.144 689.578C858.732 689.578 859.236 689.62 859.656 689.704C860.088 689.776 860.538 689.902 861.006 690.082V692.62C860.562 692.416 860.142 692.272 859.746 692.188C859.35 692.104 858.918 692.062 858.45 692.062C857.574 692.074 856.938 692.326 856.542 692.818C856.146 693.298 855.948 693.994 855.948 694.906C855.948 696.85 856.758 697.828 858.378 697.84C859.206 697.84 860.064 697.57 860.952 697.03L861.744 699.352C860.652 699.988 859.452 700.306 858.144 700.306ZM868.204 700.306C867.064 700.306 866.092 700.072 865.288 699.604C864.484 699.136 863.878 698.5 863.47 697.696C863.074 696.88 862.876 695.962 862.876 694.942C862.876 693.934 863.074 693.028 863.47 692.224C863.878 691.408 864.484 690.766 865.288 690.298C866.092 689.818 867.064 689.578 868.204 689.578C869.344 689.578 870.31 689.818 871.102 690.298C871.894 690.766 872.488 691.408 872.884 692.224C873.292 693.028 873.496 693.934 873.496 694.942C873.496 695.962 873.292 696.88 872.884 697.696C872.488 698.5 871.894 699.136 871.102 699.604C870.31 700.072 869.344 700.306 868.204 700.306ZM868.204 697.93C868.984 697.93 869.578 697.672 869.986 697.156C870.394 696.628 870.598 695.89 870.598 694.942C870.598 694.006 870.394 693.28 869.986 692.764C869.578 692.236 868.984 691.972 868.204 691.972C867.412 691.972 866.806 692.236 866.386 692.764C865.978 693.28 865.774 694.006 865.774 694.942C865.774 695.878 865.978 696.61 866.386 697.138C866.806 697.666 867.412 697.93 868.204 697.93ZM881.577 689.65V692.134H881.163C880.215 692.134 879.273 692.482 878.337 693.178V700H875.565V689.866H878.337V690.838C879.261 690.046 880.203 689.65 881.163 689.65H881.577ZM893.015 684.772V700H890.243V699.28C889.343 699.964 888.419 700.306 887.471 700.306C886.571 700.306 885.773 700.108 885.077 699.712C884.381 699.304 883.835 698.698 883.439 697.894C883.043 697.09 882.845 696.106 882.845 694.942C882.845 693.778 883.043 692.794 883.439 691.99C883.835 691.186 884.381 690.586 885.077 690.19C885.773 689.782 886.571 689.578 887.471 689.578C888.431 689.578 889.355 689.926 890.243 690.622V684.772H893.015ZM888.029 697.84C888.749 697.84 889.487 697.564 890.243 697.012V692.872C889.499 692.332 888.761 692.062 888.029 692.062C887.273 692.062 886.703 692.308 886.319 692.8C885.935 693.292 885.743 694.006 885.743 694.942C885.743 695.89 885.935 696.61 886.319 697.102C886.703 697.594 887.273 697.84 888.029 697.84ZM835.009 723.666V731.046C834.289 731.454 833.509 731.766 832.669 731.982C831.829 732.198 831.043 732.306 830.311 732.306C828.787 732.306 827.497 732.012 826.441 731.424C825.385 730.824 824.587 729.99 824.047 728.922C823.519 727.854 823.255 726.612 823.255 725.196C823.255 723.852 823.507 722.646 824.011 721.578C824.527 720.51 825.313 719.664 826.369 719.04C827.425 718.416 828.739 718.104 830.311 718.104C831.103 718.104 831.769 718.182 832.309 718.338C832.861 718.482 833.479 718.704 834.163 719.004V721.56C833.551 721.224 832.945 720.972 832.345 720.804C831.757 720.624 831.079 720.534 830.311 720.534C829.459 720.534 828.721 720.732 828.097 721.128C827.473 721.524 826.993 722.07 826.657 722.766C826.333 723.462 826.171 724.254 826.171 725.142C826.171 726.57 826.531 727.716 827.251 728.58C827.983 729.444 829.003 729.876 830.311 729.876C830.947 729.876 831.577 729.756 832.201 729.516V726.132H828.385V723.666H835.009ZM837.543 717.474H840.315V720.192H837.543V717.474ZM837.543 721.866H840.315V732H837.543V721.866ZM846.376 724.638V728.634C846.376 729.054 846.442 729.348 846.574 729.516C846.718 729.684 846.97 729.768 847.33 729.768C847.714 729.768 848.08 729.72 848.428 729.624V732C847.732 732.156 847.126 732.234 846.61 732.234C845.578 732.234 844.816 732.012 844.324 731.568C843.844 731.124 843.604 730.464 843.604 729.588V724.638H842.236V722.172H843.604V718.752H846.376V722.172H848.68V724.638H846.376ZM862.321 718.356V732H859.459V726.384H853.699V732H850.837V718.356H853.699V723.9H859.459V718.356H862.321ZM874.751 721.866V732H871.979V731.136C871.079 731.856 870.113 732.216 869.081 732.216C867.761 732.216 866.771 731.88 866.111 731.208C865.463 730.536 865.139 729.456 865.139 727.968V721.866H867.911V727.968C867.911 728.568 868.043 729.018 868.307 729.318C868.583 729.606 869.039 729.75 869.675 729.75C870.431 729.75 871.199 729.426 871.979 728.778V721.866H874.751ZM882.99 721.578C883.89 721.578 884.688 721.782 885.384 722.19C886.08 722.586 886.62 723.186 887.004 723.99C887.4 724.794 887.598 725.778 887.598 726.942C887.598 728.106 887.4 729.09 887.004 729.894C886.62 730.698 886.08 731.304 885.384 731.712C884.688 732.108 883.89 732.306 882.99 732.306C882.042 732.306 881.118 731.964 880.218 731.28V732H877.446V716.772H880.218V722.622C881.106 721.926 882.03 721.578 882.99 721.578ZM882.414 729.84C883.17 729.84 883.74 729.594 884.124 729.102C884.52 728.61 884.718 727.89 884.718 726.942C884.718 726.006 884.52 725.292 884.124 724.8C883.74 724.308 883.17 724.062 882.414 724.062C881.694 724.062 880.962 724.332 880.218 724.872V729.012C880.974 729.564 881.706 729.84 882.414 729.84Z" fill="#F24C41"/>
<path d="M909.901 280.922H904.519L903.439 284H900.559L905.419 270.194H908.983L913.861 284H910.981L909.901 280.922ZM909.037 278.456L907.201 273.2L905.365 278.456H909.037ZM921.275 273.578C922.175 273.578 922.973 273.782 923.669 274.19C924.365 274.586 924.905 275.186 925.289 275.99C925.685 276.794 925.883 277.778 925.883 278.942C925.883 280.106 925.685 281.09 925.289 281.894C924.905 282.698 924.365 283.304 923.669 283.712C922.973 284.108 922.175 284.306 921.275 284.306C920.327 284.306 919.403 283.964 918.503 283.28V284H915.731V268.772H918.503V274.622C919.391 273.926 920.315 273.578 921.275 273.578ZM920.699 281.84C921.455 281.84 922.025 281.594 922.409 281.102C922.805 280.61 923.003 279.89 923.003 278.942C923.003 278.006 922.805 277.292 922.409 276.8C922.025 276.308 921.455 276.062 920.699 276.062C919.979 276.062 919.247 276.332 918.503 276.872V281.012C919.259 281.564 919.991 281.84 920.699 281.84ZM937.505 268.772V284H934.733V283.28C933.833 283.964 932.909 284.306 931.961 284.306C931.061 284.306 930.263 284.108 929.567 283.712C928.871 283.304 928.325 282.698 927.929 281.894C927.533 281.09 927.335 280.106 927.335 278.942C927.335 277.778 927.533 276.794 927.929 275.99C928.325 275.186 928.871 274.586 929.567 274.19C930.263 273.782 931.061 273.578 931.961 273.578C932.921 273.578 933.845 273.926 934.733 274.622V268.772H937.505ZM932.519 281.84C933.239 281.84 933.977 281.564 934.733 281.012V276.872C933.989 276.332 933.251 276.062 932.519 276.062C931.763 276.062 931.193 276.308 930.809 276.8C930.425 277.292 930.233 278.006 930.233 278.942C930.233 279.89 930.425 280.61 930.809 281.102C931.193 281.594 931.763 281.84 932.519 281.84ZM949.02 273.866L944.88 285.602C944.616 286.358 944.316 286.946 943.98 287.366C943.644 287.786 943.254 288.08 942.81 288.248C942.366 288.428 941.814 288.518 941.154 288.518C940.578 288.518 940.056 288.44 939.588 288.284V285.908C939.948 286.004 940.314 286.052 940.686 286.052C941.154 286.052 941.526 285.956 941.802 285.764C942.09 285.572 942.33 285.2 942.522 284.648L942.738 284.018L939.21 273.866H942.054L944.088 280.184L946.32 273.866H949.02ZM891.668 313.534V316H884.018V313.534H886.43V306.334H884.378V303.868H889.238V313.534H891.668ZM897.551 308.134C898.907 308.134 899.957 308.5 900.701 309.232C901.457 309.952 901.835 310.918 901.835 312.13C901.835 313.474 901.415 314.506 900.575 315.226C899.735 315.946 898.529 316.306 896.957 316.306C895.769 316.306 894.671 316.132 893.663 315.784V313.3C894.119 313.48 894.617 313.624 895.157 313.732C895.709 313.828 896.213 313.876 896.669 313.876C898.217 313.876 898.991 313.294 898.991 312.13C898.991 311.626 898.811 311.242 898.451 310.978C898.103 310.702 897.605 310.564 896.957 310.564C896.393 310.564 895.835 310.612 895.283 310.708C894.743 310.804 894.269 310.936 893.861 311.104L893.987 303.868H901.133V306.334H896.741L896.687 308.152C896.879 308.14 897.167 308.134 897.551 308.134ZM828.349 444.306C826.705 444.294 825.445 443.82 824.569 442.884C823.693 441.936 823.255 440.616 823.255 438.924C823.255 437.244 823.693 435.936 824.569 435C825.445 434.064 826.705 433.59 828.349 433.578C828.937 433.578 829.441 433.62 829.861 433.704C830.293 433.776 830.743 433.902 831.211 434.082V436.62C830.767 436.416 830.347 436.272 829.951 436.188C829.555 436.104 829.123 436.062 828.655 436.062C827.779 436.074 827.143 436.326 826.747 436.818C826.351 437.298 826.153 437.994 826.153 438.906C826.153 440.85 826.963 441.828 828.583 441.84C829.411 441.84 830.269 441.57 831.157 441.03L831.949 443.352C830.857 443.988 829.657 444.306 828.349 444.306ZM837.365 444.306C836.537 444.306 835.805 444.24 835.169 444.108C834.545 443.976 833.891 443.748 833.207 443.424V440.94C833.867 441.312 834.533 441.582 835.205 441.75C835.889 441.906 836.609 441.984 837.365 441.984C838.265 441.984 838.715 441.684 838.715 441.084C838.715 440.844 838.643 440.658 838.499 440.526C838.355 440.394 838.127 440.292 837.815 440.22L836.213 439.878C835.241 439.674 834.521 439.332 834.053 438.852C833.585 438.372 833.351 437.706 833.351 436.854C833.351 434.67 834.719 433.578 837.455 433.578C838.583 433.578 839.783 433.794 841.055 434.226V436.62C840.587 436.404 840.041 436.23 839.417 436.098C838.805 435.966 838.193 435.9 837.581 435.9C837.053 435.9 836.681 435.966 836.465 436.098C836.261 436.23 836.159 436.422 836.159 436.674C836.159 436.89 836.225 437.052 836.357 437.16C836.489 437.256 836.699 437.34 836.987 437.412L838.589 437.754C839.609 437.958 840.353 438.3 840.821 438.78C841.289 439.26 841.523 439.98 841.523 440.94C841.523 442.056 841.145 442.896 840.389 443.46C839.645 444.024 838.637 444.306 837.365 444.306ZM847.297 444.306C846.469 444.306 845.737 444.24 845.101 444.108C844.477 443.976 843.823 443.748 843.139 443.424V440.94C843.799 441.312 844.465 441.582 845.137 441.75C845.821 441.906 846.541 441.984 847.297 441.984C848.197 441.984 848.647 441.684 848.647 441.084C848.647 440.844 848.575 440.658 848.431 440.526C848.287 440.394 848.059 440.292 847.747 440.22L846.145 439.878C845.173 439.674 844.453 439.332 843.985 438.852C843.517 438.372 843.283 437.706 843.283 436.854C843.283 434.67 844.651 433.578 847.387 433.578C848.515 433.578 849.715 433.794 850.987 434.226V436.62C850.519 436.404 849.973 436.23 849.349 436.098C848.737 435.966 848.125 435.9 847.513 435.9C846.985 435.9 846.613 435.966 846.397 436.098C846.193 436.23 846.091 436.422 846.091 436.674C846.091 436.89 846.157 437.052 846.289 437.16C846.421 437.256 846.631 437.34 846.919 437.412L848.521 437.754C849.541 437.958 850.285 438.3 850.753 438.78C851.221 439.26 851.455 439.98 851.455 440.94C851.455 442.056 851.077 442.896 850.321 443.46C849.577 444.024 848.569 444.306 847.297 444.306ZM823.885 461.474H826.657V464.192H823.885V461.474ZM823.651 480.5C823.183 480.5 822.601 480.428 821.905 480.284V477.908C822.241 477.992 822.583 478.034 822.931 478.034C823.303 478.034 823.555 477.944 823.687 477.764C823.819 477.584 823.885 477.26 823.885 476.792V465.83H826.657V477.764C826.657 478.676 826.411 479.36 825.919 479.816C825.439 480.272 824.683 480.5 823.651 480.5ZM833.096 465.866C834.356 465.866 835.31 466.046 835.958 466.406C836.606 466.754 837.038 467.222 837.254 467.81C837.47 468.398 837.578 469.148 837.578 470.06V476H834.806V475.136C834.374 475.532 833.948 475.814 833.528 475.982C833.12 476.15 832.664 476.234 832.16 476.234C831.056 476.234 830.18 475.934 829.532 475.334C828.884 474.722 828.56 473.882 828.56 472.814C828.56 471.722 828.89 470.882 829.55 470.294C830.222 469.706 831.146 469.412 832.322 469.412C833.27 469.412 834.098 469.592 834.806 469.952C834.794 469.556 834.74 469.244 834.644 469.016C834.548 468.776 834.356 468.596 834.068 468.476C833.792 468.344 833.378 468.278 832.826 468.278H830.954V465.866H833.096ZM832.718 474.056C833.39 474.056 834.086 473.756 834.806 473.156V471.878C834.182 471.578 833.564 471.428 832.952 471.428C832.472 471.428 832.088 471.536 831.8 471.752C831.512 471.968 831.368 472.31 831.368 472.778C831.368 473.63 831.818 474.056 832.718 474.056ZM849.506 465.866L846.104 476.162H842.54L839.102 465.866H841.946L844.322 473.588L846.662 465.866H849.506ZM854.963 465.866C856.223 465.866 857.177 466.046 857.825 466.406C858.473 466.754 858.905 467.222 859.121 467.81C859.337 468.398 859.445 469.148 859.445 470.06V476H856.673V475.136C856.241 475.532 855.815 475.814 855.395 475.982C854.987 476.15 854.531 476.234 854.027 476.234C852.923 476.234 852.047 475.934 851.399 475.334C850.751 474.722 850.427 473.882 850.427 472.814C850.427 471.722 850.757 470.882 851.417 470.294C852.089 469.706 853.013 469.412 854.189 469.412C855.137 469.412 855.965 469.592 856.673 469.952C856.661 469.556 856.607 469.244 856.511 469.016C856.415 468.776 856.223 468.596 855.935 468.476C855.659 468.344 855.245 468.278 854.693 468.278H852.821V465.866H854.963ZM854.585 474.056C855.257 474.056 855.953 473.756 856.673 473.156V471.878C856.049 471.578 855.431 471.428 854.819 471.428C854.339 471.428 853.955 471.536 853.667 471.752C853.379 471.968 853.235 472.31 853.235 472.778C853.235 473.63 853.685 474.056 854.585 474.056ZM865.613 476.306C864.785 476.306 864.053 476.24 863.417 476.108C862.793 475.976 862.139 475.748 861.455 475.424V472.94C862.115 473.312 862.781 473.582 863.453 473.75C864.137 473.906 864.857 473.984 865.613 473.984C866.513 473.984 866.963 473.684 866.963 473.084C866.963 472.844 866.891 472.658 866.747 472.526C866.603 472.394 866.375 472.292 866.063 472.22L864.461 471.878C863.489 471.674 862.769 471.332 862.301 470.852C861.833 470.372 861.599 469.706 861.599 468.854C861.599 466.67 862.967 465.578 865.703 465.578C866.831 465.578 868.031 465.794 869.303 466.226V468.62C868.835 468.404 868.289 468.23 867.665 468.098C867.053 467.966 866.441 467.9 865.829 467.9C865.301 467.9 864.929 467.966 864.713 468.098C864.509 468.23 864.407 468.422 864.407 468.674C864.407 468.89 864.473 469.052 864.605 469.16C864.737 469.256 864.947 469.34 865.235 469.412L866.837 469.754C867.857 469.958 868.601 470.3 869.069 470.78C869.537 471.26 869.771 471.98 869.771 472.94C869.771 474.056 869.393 474.896 868.637 475.46C867.893 476.024 866.885 476.306 865.613 476.306ZM876.355 476.306C874.711 476.294 873.451 475.82 872.575 474.884C871.699 473.936 871.261 472.616 871.261 470.924C871.261 469.244 871.699 467.936 872.575 467C873.451 466.064 874.711 465.59 876.355 465.578C876.943 465.578 877.447 465.62 877.867 465.704C878.299 465.776 878.749 465.902 879.217 466.082V468.62C878.773 468.416 878.353 468.272 877.957 468.188C877.561 468.104 877.129 468.062 876.661 468.062C875.785 468.074 875.149 468.326 874.753 468.818C874.357 469.298 874.159 469.994 874.159 470.906C874.159 472.85 874.969 473.828 876.589 473.84C877.417 473.84 878.275 473.57 879.163 473.03L879.955 475.352C878.863 475.988 877.663 476.306 876.355 476.306ZM887.729 465.65V468.134H887.315C886.367 468.134 885.425 468.482 884.489 469.178V476H881.717V465.866H884.489V466.838C885.413 466.046 886.355 465.65 887.315 465.65H887.729ZM889.627 461.474H892.399V464.192H889.627V461.474ZM889.627 465.866H892.399V476H889.627V465.866ZM900.638 465.578C901.538 465.578 902.336 465.782 903.032 466.19C903.728 466.586 904.268 467.186 904.652 467.99C905.048 468.794 905.246 469.778 905.246 470.942C905.246 472.106 905.048 473.09 904.652 473.894C904.268 474.698 903.728 475.304 903.032 475.712C902.336 476.108 901.538 476.306 900.638 476.306C899.69 476.306 898.766 475.964 897.866 475.28V480.212H895.094V465.866H897.866V466.622C898.754 465.926 899.678 465.578 900.638 465.578ZM900.062 473.84C900.818 473.84 901.388 473.594 901.772 473.102C902.168 472.61 902.366 471.89 902.366 470.942C902.366 470.006 902.168 469.292 901.772 468.8C901.388 468.308 900.818 468.062 900.062 468.062C899.342 468.062 898.61 468.332 897.866 468.872V473.012C898.622 473.564 899.354 473.84 900.062 473.84ZM910.695 468.638V472.634C910.695 473.054 910.761 473.348 910.893 473.516C911.037 473.684 911.289 473.768 911.649 473.768C912.033 473.768 912.399 473.72 912.747 473.624V476C912.051 476.156 911.445 476.234 910.929 476.234C909.897 476.234 909.135 476.012 908.643 475.568C908.163 475.124 907.923 474.464 907.923 473.588V468.638H906.555V466.172H907.923V462.752H910.695V466.172H912.999V468.638H910.695ZM823.885 493.474H826.657V496.192H823.885V493.474ZM823.651 512.5C823.183 512.5 822.601 512.428 821.905 512.284V509.908C822.241 509.992 822.583 510.034 822.931 510.034C823.303 510.034 823.555 509.944 823.687 509.764C823.819 509.584 823.885 509.26 823.885 508.792V497.83H826.657V509.764C826.657 510.676 826.411 511.36 825.919 511.816C825.439 512.272 824.683 512.5 823.651 512.5ZM833.096 497.866C834.356 497.866 835.31 498.046 835.958 498.406C836.606 498.754 837.038 499.222 837.254 499.81C837.47 500.398 837.578 501.148 837.578 502.06V508H834.806V507.136C834.374 507.532 833.948 507.814 833.528 507.982C833.12 508.15 832.664 508.234 832.16 508.234C831.056 508.234 830.18 507.934 829.532 507.334C828.884 506.722 828.56 505.882 828.56 504.814C828.56 503.722 828.89 502.882 829.55 502.294C830.222 501.706 831.146 501.412 832.322 501.412C833.27 501.412 834.098 501.592 834.806 501.952C834.794 501.556 834.74 501.244 834.644 501.016C834.548 500.776 834.356 500.596 834.068 500.476C833.792 500.344 833.378 500.278 832.826 500.278H830.954V497.866H833.096ZM832.718 506.056C833.39 506.056 834.086 505.756 834.806 505.156V503.878C834.182 503.578 833.564 503.428 832.952 503.428C832.472 503.428 832.088 503.536 831.8 503.752C831.512 503.968 831.368 504.31 831.368 504.778C831.368 505.63 831.818 506.056 832.718 506.056ZM849.506 497.866L846.104 508.162H842.54L839.102 497.866H841.946L844.322 505.588L846.662 497.866H849.506ZM854.963 497.866C856.223 497.866 857.177 498.046 857.825 498.406C858.473 498.754 858.905 499.222 859.121 499.81C859.337 500.398 859.445 501.148 859.445 502.06V508H856.673V507.136C856.241 507.532 855.815 507.814 855.395 507.982C854.987 508.15 854.531 508.234 854.027 508.234C852.923 508.234 852.047 507.934 851.399 507.334C850.751 506.722 850.427 505.882 850.427 504.814C850.427 503.722 850.757 502.882 851.417 502.294C852.089 501.706 853.013 501.412 854.189 501.412C855.137 501.412 855.965 501.592 856.673 501.952C856.661 501.556 856.607 501.244 856.511 501.016C856.415 500.776 856.223 500.596 855.935 500.476C855.659 500.344 855.245 500.278 854.693 500.278H852.821V497.866H854.963ZM854.585 506.056C855.257 506.056 855.953 505.756 856.673 505.156V503.878C856.049 503.578 855.431 503.428 854.819 503.428C854.339 503.428 853.955 503.536 853.667 503.752C853.379 503.968 853.235 504.31 853.235 504.778C853.235 505.63 853.685 506.056 854.585 506.056ZM830.311 540.306C827.971 540.306 826.207 539.676 825.019 538.416C823.843 537.144 823.255 535.41 823.255 533.214C823.255 531.87 823.519 530.664 824.047 529.596C824.587 528.516 825.385 527.664 826.441 527.04C827.497 526.416 828.787 526.104 830.311 526.104C830.947 526.104 831.511 526.158 832.003 526.266C832.507 526.362 833.047 526.53 833.623 526.77V529.272C832.603 528.78 831.529 528.534 830.401 528.534C829.561 528.534 828.823 528.738 828.187 529.146C827.551 529.542 827.053 530.094 826.693 530.802C826.345 531.51 826.171 532.308 826.171 533.196C826.171 534.612 826.537 535.746 827.269 536.598C828.001 537.45 829.015 537.876 830.311 537.876C830.899 537.876 831.475 537.792 832.039 537.624C832.615 537.444 833.221 537.186 833.857 536.85L834.703 539.208C834.007 539.568 833.275 539.838 832.507 540.018C831.739 540.21 831.007 540.306 830.311 540.306ZM971.815 668.306C969.475 668.306 967.711 667.676 966.523 666.416C965.347 665.144 964.759 663.41 964.759 661.214C964.759 659.87 965.023 658.664 965.551 657.596C966.091 656.516 966.889 655.664 967.945 655.04C969.001 654.416 970.291 654.104 971.815 654.104C972.451 654.104 973.015 654.158 973.507 654.266C974.011 654.362 974.551 654.53 975.127 654.77V657.272C974.107 656.78 973.033 656.534 971.905 656.534C971.065 656.534 970.327 656.738 969.691 657.146C969.055 657.542 968.557 658.094 968.197 658.802C967.849 659.51 967.675 660.308 967.675 661.196C967.675 662.612 968.041 663.746 968.773 664.598C969.505 665.45 970.519 665.876 971.815 665.876C972.403 665.876 972.979 665.792 973.543 665.624C974.119 665.444 974.725 665.186 975.361 664.85L976.207 667.208C975.511 667.568 974.779 667.838 974.011 668.018C973.243 668.21 972.511 668.306 971.815 668.306ZM987.006 657.866L982.866 669.602C982.602 670.358 982.302 670.946 981.966 671.366C981.63 671.786 981.24 672.08 980.796 672.248C980.352 672.428 979.8 672.518 979.14 672.518C978.564 672.518 978.042 672.44 977.574 672.284V669.908C977.934 670.004 978.3 670.052 978.672 670.052C979.14 670.052 979.512 669.956 979.788 669.764C980.076 669.572 980.316 669.2 980.508 668.648L980.724 668.018L977.196 657.866H980.04L982.074 664.184L984.306 657.866H987.006ZM994.259 657.578C995.159 657.578 995.957 657.782 996.653 658.19C997.349 658.586 997.889 659.186 998.273 659.99C998.669 660.794 998.867 661.778 998.867 662.942C998.867 664.106 998.669 665.09 998.273 665.894C997.889 666.698 997.349 667.304 996.653 667.712C995.957 668.108 995.159 668.306 994.259 668.306C993.311 668.306 992.387 667.964 991.487 667.28V668H988.715V652.772H991.487V658.622C992.375 657.926 993.299 657.578 994.259 657.578ZM993.683 665.84C994.439 665.84 995.009 665.594 995.393 665.102C995.789 664.61 995.987 663.89 995.987 662.942C995.987 662.006 995.789 661.292 995.393 660.8C995.009 660.308 994.439 660.062 993.683 660.062C992.963 660.062 992.231 660.332 991.487 660.872V665.012C992.243 665.564 992.975 665.84 993.683 665.84ZM1003.27 663.698C1003.49 665.222 1004.44 665.984 1006.12 665.984C1006.57 665.984 1007.02 665.924 1007.45 665.804C1007.89 665.684 1008.39 665.492 1008.94 665.228L1009.68 667.388C1009.07 667.724 1008.46 667.958 1007.84 668.09C1007.24 668.234 1006.55 668.306 1005.76 668.306C1004.6 668.306 1003.62 668.084 1002.8 667.64C1001.99 667.184 1001.37 666.554 1000.95 665.75C1000.53 664.934 1000.32 663.992 1000.32 662.924C1000.32 661.796 1000.54 660.83 1000.97 660.026C1001.4 659.222 1001.99 658.616 1002.73 658.208C1003.48 657.788 1004.3 657.578 1005.22 657.578C1006.67 657.578 1007.8 658.004 1008.62 658.856C1009.45 659.708 1009.86 660.956 1009.86 662.6V663.698H1003.27ZM1005.22 659.9C1004.71 659.9 1004.3 660.032 1003.97 660.296C1003.66 660.56 1003.45 660.992 1003.33 661.592H1006.96C1006.9 661.004 1006.73 660.578 1006.44 660.314C1006.15 660.038 1005.74 659.9 1005.22 659.9ZM1017.82 657.65V660.134H1017.41C1016.46 660.134 1015.52 660.482 1014.58 661.178V668H1011.81V657.866H1014.58V658.838C1015.51 658.046 1016.45 657.65 1017.41 657.65H1017.82ZM1026.15 668.306C1023.81 668.306 1022.05 667.676 1020.86 666.416C1019.68 665.144 1019.09 663.41 1019.09 661.214C1019.09 659.87 1019.36 658.664 1019.89 657.596C1020.43 656.516 1021.22 655.664 1022.28 655.04C1023.34 654.416 1024.63 654.104 1026.15 654.104C1026.79 654.104 1027.35 654.158 1027.84 654.266C1028.35 654.362 1028.89 654.53 1029.46 654.77V657.272C1028.44 656.78 1027.37 656.534 1026.24 656.534C1025.4 656.534 1024.66 656.738 1024.03 657.146C1023.39 657.542 1022.89 658.094 1022.53 658.802C1022.18 659.51 1022.01 660.308 1022.01 661.196C1022.01 662.612 1022.38 663.746 1023.11 664.598C1023.84 665.45 1024.85 665.876 1026.15 665.876C1026.74 665.876 1027.31 665.792 1027.88 665.624C1028.45 665.444 1029.06 665.186 1029.7 664.85L1030.54 667.208C1029.85 667.568 1029.11 667.838 1028.35 668.018C1027.58 668.21 1026.85 668.306 1026.15 668.306ZM1038.53 657.65V660.134H1038.12C1037.17 660.134 1036.23 660.482 1035.29 661.178V668H1032.52V657.866H1035.29V658.838C1036.22 658.046 1037.16 657.65 1038.12 657.65H1038.53ZM1040.43 653.474H1043.2V656.192H1040.43V653.474ZM1040.43 657.866H1043.2V668H1040.43V657.866ZM1057.94 657.65C1059.22 657.65 1060.18 657.986 1060.8 658.658C1061.42 659.33 1061.74 660.416 1061.74 661.916V668H1058.96V661.916C1058.96 661.316 1058.84 660.872 1058.6 660.584C1058.36 660.284 1057.95 660.134 1057.36 660.134C1056.64 660.134 1055.91 660.458 1055.17 661.106C1055.19 661.442 1055.2 661.712 1055.2 661.916V668H1052.43V661.916C1052.43 661.316 1052.31 660.872 1052.07 660.584C1051.83 660.284 1051.42 660.134 1050.83 660.134C1050.11 660.134 1049.39 660.446 1048.67 661.07V668H1045.9V657.866H1048.67V658.73C1049.11 658.358 1049.55 658.088 1049.98 657.92C1050.43 657.74 1050.9 657.65 1051.4 657.65C1053 657.65 1054.09 658.178 1054.66 659.234C1055.2 658.694 1055.73 658.298 1056.25 658.046C1056.77 657.782 1057.34 657.65 1057.94 657.65ZM1064.28 653.474H1067.06V656.192H1064.28V653.474ZM1064.28 657.866H1067.06V668H1064.28V657.866ZM1075.42 657.65C1076.74 657.65 1077.72 657.992 1078.37 658.676C1079.03 659.348 1079.36 660.428 1079.36 661.916V668H1076.59V661.916C1076.59 661.316 1076.46 660.872 1076.19 660.584C1075.93 660.284 1075.47 660.134 1074.83 660.134C1074.06 660.134 1073.29 660.452 1072.52 661.088V668H1069.75V657.866H1072.52V658.748C1073.41 658.016 1074.38 657.65 1075.42 657.65ZM1085.71 657.866C1086.97 657.866 1087.93 658.046 1088.57 658.406C1089.22 658.754 1089.65 659.222 1089.87 659.81C1090.09 660.398 1090.19 661.148 1090.19 662.06V668H1087.42V667.136C1086.99 667.532 1086.56 667.814 1086.14 667.982C1085.74 668.15 1085.28 668.234 1084.78 668.234C1083.67 668.234 1082.8 667.934 1082.15 667.334C1081.5 666.722 1081.18 665.882 1081.18 664.814C1081.18 663.722 1081.51 662.882 1082.17 662.294C1082.84 661.706 1083.76 661.412 1084.94 661.412C1085.89 661.412 1086.71 661.592 1087.42 661.952C1087.41 661.556 1087.36 661.244 1087.26 661.016C1087.16 660.776 1086.97 660.596 1086.68 660.476C1086.41 660.344 1085.99 660.278 1085.44 660.278H1083.57V657.866H1085.71ZM1085.33 666.056C1086.01 666.056 1086.7 665.756 1087.42 665.156V663.878C1086.8 663.578 1086.18 663.428 1085.57 663.428C1085.09 663.428 1084.7 663.536 1084.42 663.752C1084.13 663.968 1083.98 664.31 1083.98 664.778C1083.98 665.63 1084.43 666.056 1085.33 666.056ZM1092.92 654.356H1095.79V668H1092.92V654.356ZM1101.02 663.698C1101.24 665.222 1102.19 665.984 1103.87 665.984C1104.32 665.984 1104.77 665.924 1105.2 665.804C1105.64 665.684 1106.14 665.492 1106.69 665.228L1107.43 667.388C1106.82 667.724 1106.21 667.958 1105.6 668.09C1105 668.234 1104.3 668.306 1103.51 668.306C1102.36 668.306 1101.37 668.084 1100.56 667.64C1099.74 667.184 1099.12 666.554 1098.7 665.75C1098.28 664.934 1098.07 663.992 1098.07 662.924C1098.07 661.796 1098.29 660.83 1098.72 660.026C1099.15 659.222 1099.74 658.616 1100.48 658.208C1101.23 657.788 1102.06 657.578 1102.97 657.578C1104.42 657.578 1105.55 658.004 1106.37 658.856C1107.2 659.708 1107.61 660.956 1107.61 662.6V663.698H1101.02ZM1102.97 659.9C1102.46 659.9 1102.05 660.032 1101.73 660.296C1101.41 660.56 1101.2 660.992 1101.08 661.592H1104.71C1104.65 661.004 1104.48 660.578 1104.19 660.314C1103.9 660.038 1103.5 659.9 1102.97 659.9ZM942.948 696.922H937.566L936.486 700H933.606L938.466 686.194H942.03L946.908 700H944.028L942.948 696.922ZM942.084 694.456L940.248 689.2L938.412 694.456H942.084ZM954.322 689.578C955.222 689.578 956.02 689.782 956.716 690.19C957.412 690.586 957.952 691.186 958.336 691.99C958.732 692.794 958.93 693.778 958.93 694.942C958.93 696.106 958.732 697.09 958.336 697.894C957.952 698.698 957.412 699.304 956.716 699.712C956.02 700.108 955.222 700.306 954.322 700.306C953.374 700.306 952.45 699.964 951.55 699.28V700H948.778V684.772H951.55V690.622C952.438 689.926 953.362 689.578 954.322 689.578ZM953.746 697.84C954.502 697.84 955.072 697.594 955.456 697.102C955.852 696.61 956.05 695.89 956.05 694.942C956.05 694.006 955.852 693.292 955.456 692.8C955.072 692.308 954.502 692.062 953.746 692.062C953.026 692.062 952.294 692.332 951.55 692.872V697.012C952.306 697.564 953.038 697.84 953.746 697.84ZM970.552 684.772V700H967.78V699.28C966.88 699.964 965.956 700.306 965.008 700.306C964.108 700.306 963.31 700.108 962.614 699.712C961.918 699.304 961.372 698.698 960.976 697.894C960.58 697.09 960.382 696.106 960.382 694.942C960.382 693.778 960.58 692.794 960.976 691.99C961.372 691.186 961.918 690.586 962.614 690.19C963.31 689.782 964.108 689.578 965.008 689.578C965.968 689.578 966.892 689.926 967.78 690.622V684.772H970.552ZM965.566 697.84C966.286 697.84 967.024 697.564 967.78 697.012V692.872C967.036 692.332 966.298 692.062 965.566 692.062C964.81 692.062 964.24 692.308 963.856 692.8C963.472 693.292 963.28 694.006 963.28 694.942C963.28 695.89 963.472 696.61 963.856 697.102C964.24 697.594 964.81 697.84 965.566 697.84ZM982.066 689.866L977.926 701.602C977.662 702.358 977.362 702.946 977.026 703.366C976.69 703.786 976.3 704.08 975.856 704.248C975.412 704.428 974.86 704.518 974.2 704.518C973.624 704.518 973.102 704.44 972.634 704.284V701.908C972.994 702.004 973.36 702.052 973.732 702.052C974.2 702.052 974.572 701.956 974.848 701.764C975.136 701.572 975.376 701.2 975.568 700.648L975.784 700.018L972.256 689.866H975.1L977.134 696.184L979.366 689.866H982.066ZM983.506 696.832H986.458V700H983.506V696.832ZM997.495 692.89L997.225 694.978H998.557V697.462H996.901L996.577 700H994.057L994.399 697.462H992.419L992.095 700H989.575L989.917 697.462H988.621V694.978H990.223L990.493 692.89H989.161V690.406H990.817L991.141 687.868H993.661L993.319 690.406H995.299L995.623 687.868H998.143L997.801 690.406H999.097V692.89H997.495ZM994.975 692.89H993.013L992.743 694.978H994.705L994.975 692.89ZM1001.01 697.534C1002.5 696.25 1003.58 695.302 1004.25 694.69C1004.92 694.066 1005.42 693.514 1005.76 693.034C1006.11 692.554 1006.28 692.092 1006.28 691.648C1006.28 691.12 1006.12 690.724 1005.8 690.46C1005.47 690.184 1005.03 690.046 1004.46 690.046C1003.47 690.046 1002.47 690.292 1001.46 690.784V688.282C1002.05 688.03 1002.63 687.856 1003.2 687.76C1003.78 687.664 1004.39 687.616 1005.04 687.616C1006.25 687.616 1007.24 687.94 1007.99 688.588C1008.75 689.236 1009.13 690.166 1009.13 691.378C1009.13 692.098 1008.96 692.77 1008.64 693.394C1008.33 694.006 1007.86 694.618 1007.24 695.23C1006.62 695.842 1005.76 696.61 1004.64 697.534H1009.52V700H1001.01V697.534ZM1015.04 700.306C1013.56 700.306 1012.46 699.808 1011.75 698.812C1011.05 697.804 1010.71 696.184 1010.71 693.952C1010.71 691.756 1011.05 690.154 1011.75 689.146C1012.46 688.126 1013.56 687.616 1015.04 687.616C1016.48 687.616 1017.56 688.132 1018.28 689.164C1019.02 690.184 1019.38 691.78 1019.38 693.952C1019.38 696.16 1019.02 697.774 1018.3 698.794C1017.58 699.802 1016.5 700.306 1015.04 700.306ZM1015.04 697.876C1015.55 697.876 1015.92 697.582 1016.16 696.994C1016.41 696.406 1016.54 695.344 1016.54 693.808C1016.54 692.428 1016.41 691.456 1016.16 690.892C1015.91 690.328 1015.54 690.046 1015.04 690.046C1014.7 690.046 1014.41 690.166 1014.2 690.406C1013.98 690.634 1013.82 691.036 1013.71 691.612C1013.6 692.176 1013.55 692.956 1013.55 693.952C1013.55 694.972 1013.6 695.77 1013.71 696.346C1013.82 696.91 1013.98 697.306 1014.2 697.534C1014.41 697.762 1014.7 697.876 1015.04 697.876ZM1020.8 697.534C1022.29 696.25 1023.37 695.302 1024.04 694.69C1024.71 694.066 1025.22 693.514 1025.55 693.034C1025.9 692.554 1026.07 692.092 1026.07 691.648C1026.07 691.12 1025.91 690.724 1025.59 690.46C1025.26 690.184 1024.82 690.046 1024.26 690.046C1023.26 690.046 1022.26 690.292 1021.25 690.784V688.282C1021.84 688.03 1022.42 687.856 1023 687.76C1023.57 687.664 1024.18 687.616 1024.83 687.616C1026.04 687.616 1027.03 687.94 1027.78 688.588C1028.54 689.236 1028.92 690.166 1028.92 691.378C1028.92 692.098 1028.76 692.77 1028.43 693.394C1028.12 694.006 1027.65 694.618 1027.03 695.23C1026.42 695.842 1025.55 696.61 1024.44 697.534H1029.31V700H1020.8V697.534ZM1034.8 692.134C1036.16 692.134 1037.21 692.5 1037.95 693.232C1038.71 693.952 1039.08 694.918 1039.08 696.13C1039.08 697.474 1038.66 698.506 1037.82 699.226C1036.98 699.946 1035.78 700.306 1034.21 700.306C1033.02 700.306 1031.92 700.132 1030.91 699.784V697.3C1031.37 697.48 1031.87 697.624 1032.41 697.732C1032.96 697.828 1033.46 697.876 1033.92 697.876C1035.47 697.876 1036.24 697.294 1036.24 696.13C1036.24 695.626 1036.06 695.242 1035.7 694.978C1035.35 694.702 1034.85 694.564 1034.21 694.564C1033.64 694.564 1033.08 694.612 1032.53 694.708C1031.99 694.804 1031.52 694.936 1031.11 695.104L1031.24 687.868H1038.38V690.334H1033.99L1033.94 692.152C1034.13 692.14 1034.42 692.134 1034.8 692.134ZM937.873 721.866V732.018C937.873 733.362 937.477 734.448 936.685 735.276C935.905 736.104 934.759 736.518 933.247 736.518C932.323 736.518 931.513 736.47 930.817 736.374C930.121 736.278 929.461 736.11 928.837 735.87V733.296C929.449 733.56 930.067 733.752 930.691 733.872C931.315 733.992 931.879 734.052 932.383 734.052C933.379 734.052 934.081 733.866 934.489 733.494C934.897 733.122 935.101 732.57 935.101 731.838V730.92C934.201 731.604 933.277 731.946 932.329 731.946C930.925 731.946 929.803 731.52 928.963 730.668C928.123 729.816 927.703 728.514 927.703 726.762C927.703 725.646 927.901 724.698 928.297 723.918C928.693 723.138 929.239 722.556 929.935 722.172C930.631 721.776 931.429 721.578 932.329 721.578C933.289 721.578 934.213 721.926 935.101 722.622V721.866H937.873ZM932.887 729.48C933.583 729.48 934.321 729.204 935.101 728.652V724.872C934.345 724.332 933.607 724.062 932.887 724.062C932.131 724.062 931.555 724.296 931.159 724.764C930.775 725.232 930.583 725.898 930.583 726.762C930.583 727.722 930.769 728.418 931.141 728.85C931.525 729.27 932.107 729.48 932.887 729.48ZM940.498 717.474H943.27V720.192H940.498V717.474ZM940.498 721.866H943.27V732H940.498V721.866ZM949.331 724.638V728.634C949.331 729.054 949.397 729.348 949.529 729.516C949.673 729.684 949.925 729.768 950.285 729.768C950.669 729.768 951.035 729.72 951.383 729.624V732C950.687 732.156 950.081 732.234 949.565 732.234C948.533 732.234 947.771 732.012 947.279 731.568C946.799 731.124 946.559 730.464 946.559 729.588V724.638H945.191V722.172H946.559V718.752H949.331V722.172H951.635V724.638H949.331ZM959.247 721.65C960.567 721.65 961.551 721.992 962.199 722.676C962.859 723.348 963.189 724.428 963.189 725.916V732H960.417V725.916C960.417 725.316 960.285 724.872 960.021 724.584C959.757 724.284 959.301 724.134 958.653 724.134C957.885 724.134 957.117 724.452 956.349 725.088V732H953.577V716.772H956.349V722.748C957.237 722.016 958.203 721.65 959.247 721.65ZM975.315 721.866V732H972.543V731.136C971.643 731.856 970.677 732.216 969.645 732.216C968.325 732.216 967.335 731.88 966.675 731.208C966.027 730.536 965.703 729.456 965.703 727.968V721.866H968.475V727.968C968.475 728.568 968.607 729.018 968.871 729.318C969.147 729.606 969.603 729.75 970.239 729.75C970.995 729.75 971.763 729.426 972.543 728.778V721.866H975.315ZM983.554 721.578C984.454 721.578 985.252 721.782 985.948 722.19C986.644 722.586 987.184 723.186 987.568 723.99C987.964 724.794 988.162 725.778 988.162 726.942C988.162 728.106 987.964 729.09 987.568 729.894C987.184 730.698 986.644 731.304 985.948 731.712C985.252 732.108 984.454 732.306 983.554 732.306C982.606 732.306 981.682 731.964 980.782 731.28V732H978.01V716.772H980.782V722.622C981.67 721.926 982.594 721.578 983.554 721.578ZM982.978 729.84C983.734 729.84 984.304 729.594 984.688 729.102C985.084 728.61 985.282 727.89 985.282 726.942C985.282 726.006 985.084 725.292 984.688 724.8C984.304 724.308 983.734 724.062 982.978 724.062C982.258 724.062 981.526 724.332 980.782 724.872V729.012C981.538 729.564 982.27 729.84 982.978 729.84ZM989.975 728.832H992.927V732H989.975V728.832ZM999.824 732.306C998.18 732.294 996.92 731.82 996.044 730.884C995.168 729.936 994.73 728.616 994.73 726.924C994.73 725.244 995.168 723.936 996.044 723C996.92 722.064 998.18 721.59 999.824 721.578C1000.41 721.578 1000.92 721.62 1001.34 721.704C1001.77 721.776 1002.22 721.902 1002.69 722.082V724.62C1002.24 724.416 1001.82 724.272 1001.43 724.188C1001.03 724.104 1000.6 724.062 1000.13 724.062C999.254 724.074 998.618 724.326 998.222 724.818C997.826 725.298 997.628 725.994 997.628 726.906C997.628 728.85 998.438 729.828 1000.06 729.84C1000.89 729.84 1001.74 729.57 1002.63 729.03L1003.42 731.352C1002.33 731.988 1001.13 732.306 999.824 732.306ZM1009.88 732.306C1008.74 732.306 1007.77 732.072 1006.97 731.604C1006.16 731.136 1005.56 730.5 1005.15 729.696C1004.75 728.88 1004.56 727.962 1004.56 726.942C1004.56 725.934 1004.75 725.028 1005.15 724.224C1005.56 723.408 1006.16 722.766 1006.97 722.298C1007.77 721.818 1008.74 721.578 1009.88 721.578C1011.02 721.578 1011.99 721.818 1012.78 722.298C1013.57 722.766 1014.17 723.408 1014.56 724.224C1014.97 725.028 1015.18 725.934 1015.18 726.942C1015.18 727.962 1014.97 728.88 1014.56 729.696C1014.17 730.5 1013.57 731.136 1012.78 731.604C1011.99 732.072 1011.02 732.306 1009.88 732.306ZM1009.88 729.93C1010.66 729.93 1011.26 729.672 1011.67 729.156C1012.07 728.628 1012.28 727.89 1012.28 726.942C1012.28 726.006 1012.07 725.28 1011.67 724.764C1011.26 724.236 1010.66 723.972 1009.88 723.972C1009.09 723.972 1008.49 724.236 1008.07 724.764C1007.66 725.28 1007.45 726.006 1007.45 726.942C1007.45 727.878 1007.66 728.61 1008.07 729.138C1008.49 729.666 1009.09 729.93 1009.88 729.93ZM1029.29 721.65C1030.57 721.65 1031.52 721.986 1032.15 722.658C1032.77 723.33 1033.08 724.416 1033.08 725.916V732H1030.31V725.916C1030.31 725.316 1030.19 724.872 1029.95 724.584C1029.71 724.284 1029.3 724.134 1028.71 724.134C1027.99 724.134 1027.26 724.458 1026.51 725.106C1026.54 725.442 1026.55 725.712 1026.55 725.916V732H1023.78V725.916C1023.78 725.316 1023.66 724.872 1023.42 724.584C1023.18 724.284 1022.76 724.134 1022.18 724.134C1021.46 724.134 1020.74 724.446 1020.02 725.07V732H1017.24V721.866H1020.02V722.73C1020.46 722.358 1020.9 722.088 1021.33 721.92C1021.77 721.74 1022.25 721.65 1022.75 721.65C1024.35 721.65 1025.43 722.178 1026.01 723.234C1026.55 722.694 1027.08 722.298 1027.59 722.046C1028.12 721.782 1028.69 721.65 1029.29 721.65ZM1039.56 715.242H1042.36L1036.77 735.186H1033.96L1039.56 715.242ZM1047.11 721.866C1048.37 721.866 1049.32 722.046 1049.97 722.406C1050.62 722.754 1051.05 723.222 1051.27 723.81C1051.48 724.398 1051.59 725.148 1051.59 726.06V732H1048.82V731.136C1048.39 731.532 1047.96 731.814 1047.54 731.982C1047.13 732.15 1046.68 732.234 1046.17 732.234C1045.07 732.234 1044.19 731.934 1043.55 731.334C1042.9 730.722 1042.57 729.882 1042.57 728.814C1042.57 727.722 1042.9 726.882 1043.56 726.294C1044.24 725.706 1045.16 725.412 1046.34 725.412C1047.28 725.412 1048.11 725.592 1048.82 725.952C1048.81 725.556 1048.75 725.244 1048.66 725.016C1048.56 724.776 1048.37 724.596 1048.08 724.476C1047.81 724.344 1047.39 724.278 1046.84 724.278H1044.97V721.866H1047.11ZM1046.73 730.056C1047.4 730.056 1048.1 729.756 1048.82 729.156V727.878C1048.2 727.578 1047.58 727.428 1046.97 727.428C1046.49 727.428 1046.1 727.536 1045.81 727.752C1045.53 727.968 1045.38 728.31 1045.38 728.778C1045.38 729.63 1045.83 730.056 1046.73 730.056ZM1059.65 721.578C1060.55 721.578 1061.35 721.782 1062.04 722.19C1062.74 722.586 1063.28 723.186 1063.66 723.99C1064.06 724.794 1064.26 725.778 1064.26 726.942C1064.26 728.106 1064.06 729.09 1063.66 729.894C1063.28 730.698 1062.74 731.304 1062.04 731.712C1061.35 732.108 1060.55 732.306 1059.65 732.306C1058.7 732.306 1057.78 731.964 1056.88 731.28V732H1054.11V716.772H1056.88V722.622C1057.77 721.926 1058.69 721.578 1059.65 721.578ZM1059.07 729.84C1059.83 729.84 1060.4 729.594 1060.78 729.102C1061.18 728.61 1061.38 727.89 1061.38 726.942C1061.38 726.006 1061.18 725.292 1060.78 724.8C1060.4 724.308 1059.83 724.062 1059.07 724.062C1058.35 724.062 1057.62 724.332 1056.88 724.872V729.012C1057.63 729.564 1058.37 729.84 1059.07 729.84ZM1075.88 716.772V732H1073.11V731.28C1072.21 731.964 1071.28 732.306 1070.34 732.306C1069.44 732.306 1068.64 732.108 1067.94 731.712C1067.25 731.304 1066.7 730.698 1066.3 729.894C1065.91 729.09 1065.71 728.106 1065.71 726.942C1065.71 725.778 1065.91 724.794 1066.3 723.99C1066.7 723.186 1067.25 722.586 1067.94 722.19C1068.64 721.782 1069.44 721.578 1070.34 721.578C1071.3 721.578 1072.22 721.926 1073.11 722.622V716.772H1075.88ZM1070.89 729.84C1071.61 729.84 1072.35 729.564 1073.11 729.012V724.872C1072.36 724.332 1071.63 724.062 1070.89 724.062C1070.14 724.062 1069.57 724.308 1069.18 724.8C1068.8 725.292 1068.61 726.006 1068.61 726.942C1068.61 727.89 1068.8 728.61 1069.18 729.102C1069.57 729.594 1070.14 729.84 1070.89 729.84ZM1087.39 721.866L1083.25 733.602C1082.99 734.358 1082.69 734.946 1082.35 735.366C1082.02 735.786 1081.63 736.08 1081.18 736.248C1080.74 736.428 1080.19 736.518 1079.53 736.518C1078.95 736.518 1078.43 736.44 1077.96 736.284V733.908C1078.32 734.004 1078.69 734.052 1079.06 734.052C1079.53 734.052 1079.9 733.956 1080.18 733.764C1080.46 733.572 1080.7 733.2 1080.9 732.648L1081.11 732.018L1077.58 721.866H1080.43L1082.46 728.184L1084.69 721.866H1087.39ZM1097.92 721.866L1093.78 733.602C1093.52 734.358 1093.22 734.946 1092.88 735.366C1092.55 735.786 1092.16 736.08 1091.71 736.248C1091.27 736.428 1090.72 736.518 1090.06 736.518C1089.48 736.518 1088.96 736.44 1088.49 736.284V733.908C1088.85 734.004 1089.22 734.052 1089.59 734.052C1090.06 734.052 1090.43 733.956 1090.71 733.764C1090.99 733.572 1091.23 733.2 1091.43 732.648L1091.64 732.018L1088.11 721.866H1090.96L1092.99 728.184L1095.22 721.866H1097.92ZM1103.23 732.306C1101.75 732.306 1100.65 731.808 1099.94 730.812C1099.24 729.804 1098.9 728.184 1098.9 725.952C1098.9 723.756 1099.24 722.154 1099.94 721.146C1100.65 720.126 1101.75 719.616 1103.23 719.616C1104.67 719.616 1105.75 720.132 1106.47 721.164C1107.21 722.184 1107.57 723.78 1107.57 725.952C1107.57 728.16 1107.21 729.774 1106.49 730.794C1105.77 731.802 1104.69 732.306 1103.23 732.306ZM1103.23 729.876C1103.74 729.876 1104.11 729.582 1104.35 728.994C1104.6 728.406 1104.73 727.344 1104.73 725.808C1104.73 724.428 1104.6 723.456 1104.35 722.892C1104.1 722.328 1103.73 722.046 1103.23 722.046C1102.89 722.046 1102.6 722.166 1102.39 722.406C1102.17 722.634 1102.01 723.036 1101.9 723.612C1101.79 724.176 1101.74 724.956 1101.74 725.952C1101.74 726.972 1101.79 727.77 1101.9 728.346C1102.01 728.91 1102.17 729.306 1102.39 729.534C1102.6 729.762 1102.89 729.876 1103.23 729.876Z" fill="#21BA42"/>
<path d="M829.555 401.65C830.875 401.65 831.859 401.992 832.507 402.676C833.167 403.348 833.497 404.428 833.497 405.916V412H830.725V405.916C830.725 405.316 830.593 404.872 830.329 404.584C830.065 404.284 829.609 404.134 828.961 404.134C828.193 404.134 827.425 404.452 826.657 405.088V412H823.885V396.772H826.657V402.748C827.545 402.016 828.511 401.65 829.555 401.65ZM839.468 404.638V408.634C839.468 409.054 839.534 409.348 839.666 409.516C839.81 409.684 840.062 409.768 840.422 409.768C840.806 409.768 841.172 409.72 841.52 409.624V412C840.824 412.156 840.218 412.234 839.702 412.234C838.67 412.234 837.908 412.012 837.416 411.568C836.936 411.124 836.696 410.464 836.696 409.588V404.638H835.328V402.172H836.696V398.752H839.468V402.172H841.772V404.638H839.468ZM855.755 401.65C857.039 401.65 857.993 401.986 858.617 402.658C859.241 403.33 859.553 404.416 859.553 405.916V412H856.781V405.916C856.781 405.316 856.661 404.872 856.421 404.584C856.181 404.284 855.767 404.134 855.179 404.134C854.459 404.134 853.727 404.458 852.983 405.106C853.007 405.442 853.019 405.712 853.019 405.916V412H850.247V405.916C850.247 405.316 850.127 404.872 849.887 404.584C849.647 404.284 849.233 404.134 848.645 404.134C847.925 404.134 847.205 404.446 846.485 405.07V412H843.713V401.866H846.485V402.73C846.929 402.358 847.367 402.088 847.799 401.92C848.243 401.74 848.717 401.65 849.221 401.65C850.817 401.65 851.903 402.178 852.479 403.234C853.019 402.694 853.547 402.298 854.063 402.046C854.591 401.782 855.155 401.65 855.755 401.65ZM865.106 412.234C863.102 412.234 862.1 411.358 862.1 409.606V396.772H864.872V408.634C864.872 409.066 864.938 409.366 865.07 409.534C865.214 409.69 865.466 409.768 865.826 409.768C866.198 409.768 866.54 409.72 866.852 409.624V412.018C866.156 412.162 865.574 412.234 865.106 412.234Z" fill="#21BA42"/>
</svg>
